#N canvas 711 87 701 469 12;
#X obj 114 31 inlet;
#X obj 66 352 outlet~;
#X obj 273 31 r a;
#X obj 391 28 r d;
#X obj 424 29 r s, f 4;
#X obj 37 38 r r;
#X obj 66 316 line~;
#X obj 114 59 sel 0;
#X obj 159 100 t b b b;
#X obj 229 153 pack 1 0;
#X obj 116 195 0;
#X obj 321 133 delay;
#X obj 393 152 pack 0 0 0;
#X obj 394 212 route 0;
#X obj 321 105 + 1;
#X text 232 170 Attack;
#X text 408 169 Decay;
#X msg 111 100 stop;
#X obj 24 158 pack 0 0;
#X text 34 176 Release;
#X connect 0 0 7 0;
#X connect 2 0 9 1;
#X connect 2 0 14 0;
#X connect 3 0 12 2;
#X connect 4 0 12 1;
#X connect 5 0 18 1;
#X connect 6 0 1 0;
#X connect 7 0 17 0;
#X connect 7 0 18 0;
#X connect 7 1 8 0;
#X connect 8 0 11 0;
#X connect 8 1 9 0;
#X connect 8 2 10 0;
#X connect 9 0 6 0;
#X connect 10 0 6 0;
#X connect 11 0 12 0;
#X connect 12 0 13 0;
#X connect 13 0 6 0;
#X connect 14 0 11 1;
#X connect 17 0 11 0;
#X connect 18 0 6 0;
