#N canvas 0 25 1440 771 12;
#X obj 41 142 notein, f 10;
#X obj 436 747 dac~;
#X obj 1014 500 vsl 20 60 100 10000 0 0 empty empty A 0 -9 0 12 #feffc6 #000000 #000000 0 1;
#X obj 1117 498 vsl 20 60 50 5000 0 0 empty empty D 0 -9 0 12 #feffc6 #000000 #000000 0 1;
#X obj 1216 495 vsl 20 60 0 1 0 0 empty empty S 0 -9 0 12 #feffc6 #000000 #000000 0 1;
#X obj 1308 494 vsl 20 60 100 10000 0 0 empty empty R 0 -9 0 12 #feffc6 #000000 #000000 0 1;
#X obj 41 189 pack 0 0 0;
#X obj 1126 211 hsl 162 19 0 1 0 0 empty empty Volume -2 -10 0 12 #e3c6ff #000000 #000000 0 1;
#X floatatom 489 615 5 0 0 0 - - - 0;
#X obj 1014 668 s a;
#X obj 1117 667 s d;
#X obj 1217 659 s s;
#X obj 1308 660 s r;
#X floatatom 1014 647 9 0 0 0 - - - 0;
#X floatatom 1117 645 8 0 0 0 - - - 0;
#X floatatom 1217 638 8 0 0 0 - - - 0;
#X floatatom 1308 639 8 0 0 0 - - - 0;
#X obj 211 654 tgl 19 0 empty empty empty 0 -10 0 12 #fcfcfc #000000 #000000 0 1;
#X obj 294 694 tabwrite~ array1;
#X obj 210 675 metro 5;
#X obj 211 609 loadbang;
#X msg 211 632 1;
#N canvas 0 22 450 278 (subpatch) 0;
#X array array1 100 float 5;
#A 0 2.8085e-18 2.81225e-18 2.81597e-18 2.81967e-18 2.82333e-18 2.82696e-18 2.83054e-18 2.83408e-18 2.83756e-18 2.84099e-18 2.84436e-18 2.84767e-18 2.8509e-18 2.85407e-18 2.85715e-18 2.86015e-18 2.86307e-18 2.8659e-18 2.86863e-18 2.87126e-18 2.87379e-18 2.87621e-18 2.87852e-18 2.88071e-18 2.88278e-18 2.88473e-18 2.88655e-18 2.88823e-18 2.88979e-18 2.89121e-18 2.89248e-18 2.89361e-18 2.89459e-18 2.89542e-18 2.8961e-18 2.89662e-18 2.89698e-18 2.89718e-18 2.89721e-18 2.89708e-18 2.89678e-18 2.89631e-18 2.89567e-18 2.89485e-18 2.89386e-18 2.89269e-18 2.89135e-18 2.88982e-18 2.88812e-18 2.88624e-18 2.88418e-18 2.88194e-18 2.87952e-18 2.87692e-18 2.87415e-18 2.87119e-18 2.86806e-18 2.86475e-18 2.86126e-18 2.8576e-18 2.85377e-18 2.84977e-18 2.8456e-18 2.84126e-18 2.83676e-18 2.83209e-18 2.82727e-18 2.82229e-18 2.81716e-18 2.81188e-18 2.80645e-18 2.80088e-18 2.79517e-18 2.78933e-18 2.78335e-18 2.77725e-18 2.77103e-18 2.76469e-18 2.75823e-18 2.75167e-18 2.74501e-18 2.73825e-18 2.7314e-18 2.72446e-18 2.71744e-18 2.71034e-18 2.70318e-18 2.69595e-18 2.68867e-18 2.68133e-18 2.67395e-18 2.66653e-18 2.65907e-18 2.6516e-18 2.6441e-18 2.63659e-18 2.62907e-18 2.62155e-18 2.61404e-18 2.60655e-18;
#X coords 0 1 99 -1 200 140 1;
#X restore 213 717 graph;
#X floatatom 1123 79 5 0 0 0 - - - 0;
#X obj 1127 54 hsl 100 19 0 4 0 0 empty empty lfo\ rate -2 -10 0 12 #ffe3c6 #000000 #000000 0 1;
#X obj 446 633 *~;
#X obj 1123 101 s l;
#X obj 251 250 lfo;
#X obj 41 165 poly 4 1, f 10;
#X obj 41 211 route 1 2 3 4;
#X obj 235 275 *~;
#X obj 41 240 note;
#X obj 76 241 note;
#X obj 111 241 note;
#X obj 146 241 note;
#X obj 1019 603 loadbang;
#X obj 1122 600 loadbang;
#X obj 1222 594 loadbang;
#X obj 1314 594 loadbang;
#X text 1174 712 ADSR;
#X obj 577 573 loadbang;
#X msg 1019 625 1000;
#X msg 1222 616 0.5;
#X msg 1122 622 1500;
#X msg 1314 617 3000;
#X msg 577 594 0.5;
#X obj 40 76 tgl 30 0 empty empty empty 0 -10 0 12 #c7c6ff #000000 #000000 0 1;
#X obj 40 29 loadbang;
#X msg 40 52 1;
#X obj 40 109 s sin;
#X obj 86 109 s sqr;
#X obj 86 76 tgl 30 0 empty empty empty 0 -10 0 12 #ffc7c6 #000000 #000000 0 1;
#X obj 131 76 tgl 30 0 empty empty empty 0 -10 0 12 #c6ffc7 #000000 #000000 0 1;
#X obj 131 109 s tri;
#X obj 176 108 s wn;
#X obj 176 43 vsl 19 60 0 0.2 0 0 empty empty noise\ volume 0 -9 0 12 #dfdfdf #000000 #000000 0 1;
#X obj 440 540 freeverb~;
#X msg 924 200 freeze \$1;
#X msg 852 200 dry \$1;
#X msg 796 200 wet \$1;
#X msg 585 202 roomsize \$1;
#X msg 694 200 damping \$1;
#X msg 1007 200 bypass \$1;
#X obj 924 100 tgl 19 0 empty empty Freeze 0 -10 0 12 #c6feff #000000 #000000 0 1;
#X obj 1006 100 tgl 19 0 empty empty \ Bypass 0 -10 0 12 #c6feff #000000 #000000 0 1;
#X obj 850 176 exp 1-$f1;
#X floatatom 830 124 3 0 0 0 - - - 0;
#X obj 799 98 hsl 80 20 0 1 0 0 empty empty Dry\ /\ Wet -2 -10 0 12 #c6feff #000000 #000000 0 1;
#X floatatom 598 124 2 0 0 0 - - - 0;
#X obj 590 98 hsl 80 20 0 1 0 0 empty empty Room\ Size -2 -10 0 12 #c6feff #000000 #000000 0 1;
#X floatatom 703 123 3 0 0 0 - - - 0;
#X obj 697 98 hsl 80 20 0 1 0 0 empty empty Damping -2 -10 0 12 #c6feff #000000 #000000 0 1;
#X obj 796 223 s r-wet;
#X obj 694 223 s r-damp;
#X obj 585 223 s r-roomsize;
#X obj 852 223 s r-dry;
#X obj 1007 222 s r-bypass;
#X obj 924 223 s r-freeze;
#X text 782 59 REVERB;
#X obj 560 399 r r-roomsize;
#X obj 561 419 r r-damp;
#X obj 561 439 r r-wet;
#X obj 561 459 r r-dry;
#X obj 561 478 r r-freeze;
#X obj 561 497 r r-bypass;
#X obj 1027 456 ctlin 1;
#X obj 1132 477 * 39.37;
#X obj 1132 454 ctlin 2;
#X obj 1231 451 ctlin 3;
#X obj 1320 450 ctlin 4;
#X obj 1320 473 * 78.7401;
#X obj 1027 479 * 78.7401;
#X obj 1309 169 ctlin 8;
#X obj 1231 474 / 127;
#X obj 1309 191 / 127;
#X obj 510 56 loadbang;
#X msg 510 79 0;
#X obj 846 42 / 127;
#X obj 846 20 ctlin 7;
#X connect 0 0 28 0;
#X connect 0 1 28 1;
#X connect 2 0 13 0;
#X connect 3 0 14 0;
#X connect 4 0 15 0;
#X connect 5 0 16 0;
#X connect 6 0 29 0;
#X connect 7 0 8 0;
#X connect 8 0 25 1;
#X connect 13 0 9 0;
#X connect 14 0 10 0;
#X connect 15 0 11 0;
#X connect 16 0 12 0;
#X connect 17 0 19 0;
#X connect 19 0 18 0;
#X connect 20 0 21 0;
#X connect 21 0 17 0;
#X connect 23 0 26 0;
#X connect 24 0 23 0;
#X connect 25 0 1 0;
#X connect 25 0 1 1;
#X connect 25 0 18 0;
#X connect 27 0 30 1;
#X connect 28 0 6 0;
#X connect 28 1 6 1;
#X connect 28 2 6 2;
#X connect 29 0 31 0;
#X connect 29 1 32 0;
#X connect 29 2 33 0;
#X connect 29 3 34 0;
#X connect 30 0 56 0;
#X connect 31 0 30 0;
#X connect 32 0 30 0;
#X connect 33 0 30 0;
#X connect 34 0 30 0;
#X connect 35 0 41 0;
#X connect 36 0 43 0;
#X connect 37 0 42 0;
#X connect 38 0 44 0;
#X connect 40 0 45 0;
#X connect 41 0 13 0;
#X connect 42 0 15 0;
#X connect 43 0 14 0;
#X connect 44 0 16 0;
#X connect 45 0 8 0;
#X connect 46 0 49 0;
#X connect 47 0 48 0;
#X connect 48 0 46 0;
#X connect 51 0 50 0;
#X connect 52 0 53 0;
#X connect 55 0 54 0;
#X connect 56 0 25 0;
#X connect 56 1 25 0;
#X connect 57 0 77 0;
#X connect 58 0 75 0;
#X connect 59 0 72 0;
#X connect 60 0 74 0;
#X connect 61 0 73 0;
#X connect 62 0 76 0;
#X connect 63 0 57 0;
#X connect 64 0 62 0;
#X connect 65 0 58 0;
#X connect 67 0 65 0;
#X connect 67 0 59 0;
#X connect 67 0 66 0;
#X connect 69 0 68 0;
#X connect 69 0 60 0;
#X connect 71 0 70 0;
#X connect 71 0 61 0;
#X connect 79 0 56 0;
#X connect 80 0 56 0;
#X connect 81 0 56 0;
#X connect 82 0 56 0;
#X connect 83 0 56 0;
#X connect 84 0 56 0;
#X connect 85 0 91 0;
#X connect 86 0 3 0;
#X connect 87 0 86 0;
#X connect 88 0 93 0;
#X connect 89 0 90 0;
#X connect 90 0 5 0;
#X connect 91 0 2 0;
#X connect 92 0 94 0;
#X connect 93 0 4 0;
#X connect 94 0 7 0;
#X connect 95 0 96 0;
#X connect 96 0 69 0;
#X connect 96 0 67 0;
#X connect 96 0 63 0;
#X connect 96 0 64 0;
#X connect 97 0 67 0;
#X connect 98 0 97 0;
