#N canvas 326 236 1114 431 12;
#X obj 199 32 inlet;
#X obj 199 56 unpack 0 0;
#X obj 198 83 mtof;
#X obj 195 311 *~;
#X obj 550 199 / 127;
#X obj 195 398 outlet~;
#X obj 501 154 adsr;
#X obj 195 343 *~;
#X obj 562 153 sel 0;
#X obj 36 491 loadbang;
#X msg 36 514 1;
#X obj 46 501 loadbang;
#X msg 46 524 1;
#X obj 56 511 loadbang;
#X msg 56 534 1;
#X obj 197 157 sinwave;
#X obj 265 156 sqrwave;
#X obj 334 156 triwave;
#X obj 101 214 noise~;
#X obj 101 261 *~;
#X obj 118 237 r wn;
#X connect 0 0 1 0;
#X connect 1 0 2 0;
#X connect 1 1 6 0;
#X connect 1 1 8 0;
#X connect 2 0 15 0;
#X connect 2 0 16 0;
#X connect 2 0 17 0;
#X connect 3 0 7 0;
#X connect 4 0 7 1;
#X connect 6 0 3 1;
#X connect 7 0 5 0;
#X connect 8 1 4 0;
#X connect 9 0 10 0;
#X connect 11 0 12 0;
#X connect 13 0 14 0;
#X connect 15 0 3 0;
#X connect 16 0 3 0;
#X connect 17 0 3 0;
#X connect 18 0 19 0;
#X connect 19 0 3 0;
#X connect 20 0 19 1;
