#N canvas 121 146 450 300 12;
#X obj 26 90 phasor~;
#X obj 26 142 *~;
#X obj 44 121 r saw;
#X obj 26 165 *~ 2;
#X obj 25 188 -~ 1;
#X obj 26 58 inlet;
#X obj 25 218 outlet~;
#X connect 0 0 1 0;
#X connect 1 0 3 0;
#X connect 2 0 1 1;
#X connect 3 0 4 0;
#X connect 4 0 6 0;
#X connect 5 0 0 0;
