#N canvas 815 250 450 300 12;
#X obj 27 61 osc~;
#X obj 27 104 *~;
#X obj 46 82 r sin;
#X obj 27 27 inlet;
#X obj 27 157 outlet~;
#X connect 0 0 1 0;
#X connect 1 0 4 0;
#X connect 2 0 1 1;
#X connect 3 0 0 0;
