#N canvas 32 120 450 300 12;
#X obj 26 124 expr~ $v1 > 0.5;
#X obj 26 58 phasor~;
#X obj 26 101 *~;
#X obj 44 80 r sqr;
#X obj 26 27 inlet;
#X obj 26 180 outlet~;
#X obj 26 152 *~ 0.5;
#X connect 0 0 6 0;
#X connect 1 0 2 0;
#X connect 2 0 0 0;
#X connect 3 0 2 1;
#X connect 4 0 1 0;
#X connect 6 0 5 0;
