#N canvas 63 88 725 505 12;
#X obj 118 182 phasor~;
#X obj 199 181 phasor~;
#X obj 199 157 * -1;
#X obj 118 206 *~ 2;
#X obj 118 233 -~ 1;
#X obj 199 205 *~ 2;
#X obj 199 232 -~ 1;
#X obj 119 264 clip~ 0 1;
#X obj 200 263 clip~ 0 1;
#X obj 119 299 +~;
#X obj 119 327 *~ 2;
#X obj 119 355 -~ 1;
#X msg 214 95 0;
#X obj 215 68 loadbang;
#X obj 120 67 inlet;
#X obj 118 455 outlet~;
#X obj 119 389 *~;
#X obj 157 355 r tri;
#X obj 119 420 *~ 0.5;
#X connect 0 0 3 0;
#X connect 2 0 1 0;
#X connect 3 0 4 0;
#X connect 4 0 7 0;
#X connect 5 0 6 0;
#X connect 6 0 8 0;
#X connect 7 0 9 0;
#X connect 8 0 9 1;
#X connect 9 0 10 0;
#X connect 10 0 11 0;
#X connect 11 0 16 0;
#X connect 12 0 0 1;
#X connect 12 0 1 1;
#X connect 13 0 12 0;
#X connect 14 0 0 0;
#X connect 14 0 2 0;
#X connect 16 0 18 0;
#X connect 17 0 16 1;
#X connect 18 0 15 0;
