#N canvas 0 205 1440 763 12;
#X declare -lib Gem;
#X obj 2990 47 r lt;
#X obj 3028 48 r mt;
#X obj 3068 48 r ht;
#X obj 3106 49 r rs;
#X obj 3146 49 r hc;
#X obj 3027 199 r mt;
#X obj 3067 199 r ht;
#X obj 3105 200 r rs;
#X obj 3145 200 r hc;
#X obj 3183 201 r ch;
#X obj 3223 50 r oh;
#X obj 3261 51 r cc;
#X obj 285 1837 bng 19 250 50 0 empty empty empty 0 -10 0 12 #fcfcfc #000000 #000000;
#X obj 2990 102 bng 19 250 50 0 empty empty empty 0 -10 0 12 #fcfcfc #000000 #000000;
#X obj 3028 102 bng 19 250 50 0 empty empty empty 0 -10 0 12 #fcfcfc #000000 #000000;
#X obj 3068 102 bng 19 250 50 0 empty empty empty 0 -10 0 12 #fcfcfc #000000 #000000;
#X obj 3106 103 bng 19 250 50 0 empty empty empty 0 -10 0 12 #fcfcfc #000000 #000000;
#X obj 3146 103 bng 19 250 50 0 empty empty empty 0 -10 0 12 #fcfcfc #000000 #000000;
#X obj 3223 104 bng 19 250 50 0 empty empty empty 0 -10 0 12 #fcfcfc #000000 #000000;
#X obj 3261 105 bng 19 250 50 0 empty empty empty 0 -10 0 12 #fcfcfc #000000 #000000;
#X obj 108 125 gemhead;
#X obj 2505 167 gemwin;
#X msg 2506 95 create \, 1;
#X msg 2587 95 0 \, destroy;
#X obj 2506 66 declare -lib Gem;
#X msg 2693 123 dimen 640 480;
#X obj 2693 96 loadbang;
#X msg 284 1860 1;
#X floatatom 284 1884 5 0 0 0 - - - 0;
#X msg 325 1862 0;
#X floatatom 325 1885 5 0 0 0 - - - 0;
#X obj 321 1839 del;
#X obj 339 1782 + 100;
#X obj 110 1143 scaleXYZ;
#X floatatom 141 1019 5 0 0 0 - - - 0;
#X floatatom 181 1019 5 0 0 0 - - - 0;
#X floatatom 327 216 5 0 0 0 - - - 0;
#X floatatom 339 1806 5 0 0 0 - - - 0;
#X obj 339 1760 * 300;
#X msg 128 1705 draw line;
#X obj 109 1481 rotateXYZ;
#X floatatom 146 1457 5 0 0 0 - - - 0;
#X floatatom 186 1457 5 0 0 0 - - - 0;
#X floatatom 226 1458 5 0 0 0 - - - 0;
#X obj 107 185 part_head;
#X obj 100 583 part_color;
#X obj 106 764 part_render;
#X obj 200 212 loadbang;
#X msg 200 235 1;
#X obj 172 532 loadbang;
#X floatatom 284 1913 5 0 0 0 - - - 0;
#X obj 382 1784 loadbang;
#X msg 382 1807 100;
#X msg 176 160 speed 5;
#X obj 282 1991 line;
#X obj 107 99 tgl 19 0 empty empty empty 0 -10 0 12 #fcfcfc #000000 #000000 0 1;
#X obj 107 255 part_size 10;
#X floatatom 282 2017 5 0 0 0 - - - 0;
#X obj 106 1582 translateXYZ;
#X obj 3901 1203 bng 19 250 50 0 empty empty empty 0 -10 0 12 #fcfcfc #000000 #000000;
#X msg 3900 1224 1;
#X floatatom 3900 1248 5 0 0 0 - - - 0;
#X msg 3941 1226 0;
#X floatatom 3941 1249 5 0 0 0 - - - 0;
#X floatatom 3896 1272 5 0 0 0 - - - 0;
#X obj 3790 323 line;
#X floatatom 3790 348 5 0 0 0 - - - 0;
#X obj 3940 1203 del;
#X obj 4147 1216 loadbang;
#X obj 3901 1182 r ch;
#X obj 3839 133 r ch-v;
#X floatatom 237 1565 5 0 0 0 - - - 0;
#X floatatom 278 1562 5 0 0 0 - - - 0;
#X floatatom 318 1563 5 0 0 0 - - - 0;
#X obj 3836 187 *;
#X msg 4145 1240 125;
#X obj 203 1242 bng 19 250 50 0 empty empty empty 0 -10 0 12 #fcfcfc #000000 #000000;
#X msg 202 1263 1;
#X floatatom 202 1287 5 0 0 0 - - - 0;
#X msg 243 1265 0;
#X floatatom 243 1288 5 0 0 0 - - - 0;
#X floatatom 198 1311 5 0 0 0 - - - 0;
#X obj 196 1389 line;
#X floatatom 196 1414 5 0 0 0 - - - 0;
#X obj 242 1242 del;
#X obj 261 1197 loadbang;
#X obj 198 1337 *;
#X msg 261 1220 125;
#X obj 203 1221 r hc;
#X obj 243 1310 r hc-v;
#X msg 197 1364 \$1 400;
#X msg 130 1679 draw point;
#X msg 128 1731 draw fill;
#X obj 101 469 part_source 10;
#X obj 106 722 part_killold 5;
#X floatatom 327 385 5 0 0 0 - - - 0;
#X obj 325 699 + 0.01;
#X obj 826 380 gemhead;
#X obj 825 354 tgl 19 0 empty empty empty 0 -10 0 12 #fcfcfc #000000 #000000 0 1;
#X obj 870 2194 sphere 0.5;
#X msg 752 2084 draw line;
#X msg 669 2085 draw point;
#X msg 834 2082 draw fill;
#X obj 825 169 bng 19 250 50 0 empty empty empty 0 -10 0 12 #fcfcfc #000000 #000000;
#X msg 824 190 1;
#X floatatom 824 214 5 0 0 0 - - - 0;
#X msg 896 208 0;
#X floatatom 896 231 5 0 0 0 - - - 0;
#X obj 895 185 del;
#X obj 914 140 loadbang;
#X msg 914 163 125;
#X obj 825 148 r rc;
#X floatatom 824 296 5 0 0 0 - - - 0;
#X obj 757 1955 translateXYZ;
#X floatatom 798 1916 5 0 0 0 - - - 0;
#X floatatom 840 1916 5 0 0 0 - - - 0;
#X floatatom 881 1917 5 0 0 0 - - - 0;
#X obj 1058 2197 sphere 0.5;
#X obj 1052 1953 translateXYZ;
#X floatatom 1081 1921 5 0 0 0 - - - 0;
#X floatatom 1122 1921 5 0 0 0 - - - 0;
#X floatatom 1163 1921 5 0 0 0 - - - 0;
#X obj 780 1824 rotateXYZ;
#X obj 1055 1835 rotateXYZ;
#X floatatom 821 1766 5 0 0 0 - - - 0;
#X floatatom 863 1766 5 0 0 0 - - - 0;
#X floatatom 904 1767 5 0 0 0 - - - 0;
#X obj 968 1653 f;
#X floatatom 969 1681 5 0 0 0 - - - 0;
#X obj 948 1957 r rc-v;
#X obj 242 1333 * 300;
#X obj 948 2030 r rc-t;
#X obj 895 97 + 100;
#X floatatom 895 121 5 0 0 0 - - - 0;
#X obj 895 53 r rc-d;
#X obj 895 75 * 1000;
#X obj 326 238 + 0.1;
#X obj 3839 157 * 360;
#X obj 3795 260 +;
#X obj 3793 233 * 40;
#X msg 3791 298 \$1 1;
#X floatatom 141 1069 5 0 0 0 - - - 0;
#X floatatom 326 436 5 0 0 0 - - - 0;
#X obj 326 652 r bd-c;
#X obj 381 674 bng 19 250 50 0 empty empty empty 0 -10 0 12 #fcfcfc #000000 #000000;
#X obj 223 430 pack f f f f;
#X floatatom 223 408 2 0 0 0 - - - 0;
#X floatatom 250 409 2 0 0 0 - - - 0;
#X floatatom 277 409 2 0 0 0 - - - 0;
#X obj 222 364 tgl 19 0 empty empty empty 0 -10 0 12 #fcfcfc #000000 #000000 0 1;
#X obj 222 341 loadbang;
#X obj 329 410 hsl 162 19 1.27 127 1 0 empty empty empty -2 -10 0 12 #fcfcfc #000000 #000000 0 1;
#X obj 326 361 * 0.5;
#X obj 326 676 * 20;
#X floatatom 1060 1778 5 0 0 0 - - - 0;
#X floatatom 1102 1778 5 0 0 0 - - - 0;
#X floatatom 1143 1779 5 0 0 0 - - - 0;
#X obj 905 1653 delay 1;
#X msg 905 1678 0;
#X obj 2121 2396 newWave;
#X msg 1621 2318 draw line;
#X msg 1696 2317 draw fill;
#X msg 1775 2318 draw point;
#X floatatom 2302 2205 5 0 0 0 - - - 0;
#X text 2301 2185 size;
#X floatatom 2292 2264 5 0 0 0 - - - 0;
#X text 2291 2244 height;
#X obj 2418 2104 vradio 19 1 0 10 empty empty empty 0 -10 0 12 #fcfcfc #000000 #000000 0;
#X text 2407 2082 action;
#X obj 2114 2218 t a b;
#X msg 1783 2247 texture 0;
#X obj 2299 1917 t a;
#X msg 2303 1885 K1 \$1;
#X obj 2303 1860 / 10;
#X floatatom 2303 1838 5 0 0 0 - - - 0;
#X obj 2361 1859 / 10;
#X floatatom 2361 1837 5 0 0 0 - - - 0;
#X msg 2361 1884 D1 \$1;
#X obj 2300 2030 t a;
#X msg 2302 2000 K1 \$1;
#X obj 2302 1975 / 10;
#X floatatom 2302 1953 5 0 0 0 - - - 0;
#X obj 2360 1974 / 10;
#X floatatom 2360 1952 5 0 0 0 - - - 0;
#X msg 2360 1999 D1 \$1;
#X obj 2298 2148 t a;
#X msg 2303 2112 K1 \$1;
#X obj 2303 2087 / 10;
#X floatatom 2303 2065 5 0 0 0 - - - 0;
#X obj 2361 2086 / 10;
#X floatatom 2361 2064 5 0 0 0 - - - 0;
#X msg 2361 2111 D1 \$1;
#X msg 2468 2296 position 1 1 10;
#X msg 2587 2297 force 15 5 -0.5;
#X obj 1888 312 gemhead;
#X obj 1889 1075 rotateXYZ 135 0 0;
#X floatatom 1928 1044 5 0 0 0 - - - 0;
#X obj 1888 983 scaleXYZ;
#X obj 1890 843 translateXYZ;
#X floatatom 1970 1045 5 0 0 0 - - - 0;
#X floatatom 2010 1046 5 0 0 0 - - - 0;
#X floatatom 1921 955 5 0 0 0 - - - 0;
#X floatatom 1963 956 5 0 0 0 - - - 0;
#X floatatom 2003 957 5 0 0 0 - - - 0;
#X floatatom 1918 800 5 0 0 0 - - - 0;
#X floatatom 1965 800 5 0 0 0 - - - 0;
#X obj 374 360 bng 19 250 50 0 empty empty empty 0 -10 0 12 #fcfcfc #000000 #000000;
#X obj 375 184 bng 19 250 50 0 empty empty empty 0 -10 0 12 #fcfcfc #000000 #000000;
#X obj 980 1989 bng 19 250 50 0 empty empty empty 0 -10 0 12 #fcfcfc #000000 #000000;
#X obj 986 2058 bng 19 250 50 0 empty empty empty 0 -10 0 12 #fcfcfc #000000 #000000;
#X msg 2708 2296 noise 1;
#X obj 669 2058 loadbang;
#X obj 250 1686 loadbang;
#X obj 2457 1925 bng 19 250 50 0 empty empty empty 0 -10 0 12 #fcfcfc #000000 #000000;
#X msg 2456 1946 1;
#X floatatom 2456 1970 5 0 0 0 - - - 0;
#X msg 2497 1948 0;
#X floatatom 2497 1971 5 0 0 0 - - - 0;
#X obj 2496 1925 del;
#X obj 2514 1877 loadbang;
#X msg 2515 1903 125;
#X floatatom 2456 1995 5 0 0 0 - - - 0;
#X obj 1887 278 tgl 19 0 empty empty empty 0 -10 0 12 #fcfcfc #000000 #000000 0 1;
#X obj 1622 2291 loadbang;
#X obj 265 70 bng 19 250 50 0 empty empty empty 0 -10 0 12 #fcfcfc #000000 #000000;
#X msg 264 91 1;
#X floatatom 264 115 5 0 0 0 - - - 0;
#X msg 305 93 0;
#X floatatom 305 116 5 0 0 0 - - - 0;
#X obj 304 70 del;
#X obj 323 25 loadbang;
#X msg 323 48 125;
#X floatatom 267 145 5 0 0 0 - - - 0;
#X obj 849 1864 loadbang;
#X obj 1143 1866 loadbang;
#X obj 2344 2182 loadbang;
#X msg 2344 2205 3;
#X obj 2345 2237 loadbang;
#X msg 2346 2262 -0.5;
#X obj 328 184 * 0.5;
#X obj 1918 743 loadbang;
#X obj 2456 2039 *;
#X floatatom 2457 2061 5 0 0 0 - - - 0;
#X floatatom 2457 2107 5 0 0 0 - - - 0;
#X obj 2457 2133 sel 1;
#X obj 2457 2157 bng 19 250 50 0 empty empty empty 0 -10 0 12 #fcfcfc #000000 #000000;
#X obj 1889 355 part_head;
#X obj 1890 676 part_render;
#X obj 1889 386 part_size 5;
#X obj 1887 474 part_source 10;
#X msg 1995 335 speed 5;
#X obj 1889 620 part_killold 5;
#X obj 1959 902 loadbang;
#X msg 1923 931 4;
#X msg 2005 932 1;
#X obj 223 386 metro 10;
#X obj 1889 556 part_color;
#X obj 1922 510 loadbang;
#X floatatom 2101 429 5 0 0 0 - - - 0;
#X floatatom 2100 480 5 0 0 0 - - - 0;
#X obj 1997 474 pack f f f f;
#X floatatom 1997 452 2 0 0 0 - - - 0;
#X floatatom 2024 453 2 0 0 0 - - - 0;
#X floatatom 2051 453 2 0 0 0 - - - 0;
#X obj 1996 408 tgl 19 0 empty empty empty 0 -10 0 12 #fcfcfc #000000 #000000 0 1;
#X obj 1996 385 loadbang;
#X obj 2103 454 hsl 162 19 1.27 127 1 0 empty empty empty -2 -10 0 12 #fcfcfc #000000 #000000 0 1;
#X obj 2148 404 bng 19 250 50 0 empty empty empty 0 -10 0 12 #fcfcfc #000000 #000000;
#X obj 1997 430 metro 10;
#X obj 2100 383 r hc-d;
#X obj 2001 615 + 0.01;
#X obj 2057 590 bng 19 250 50 0 empty empty empty 0 -10 0 12 #fcfcfc #000000 #000000;
#X obj 2002 592 * 20;
#X obj 2002 568 r hc-t;
#X obj 944 1988 * 1;
#X obj 1078 1733 * -1;
#X msg 1150 1893 -1;
#X msg 1182 1893 1;
#X obj 3838 1615 f;
#X obj 3866 1614 + 1;
#X floatatom 3837 1639 5 0 0 0 - - - 0;
#X obj 3839 1701 delay 1;
#X msg 3839 1675 0;
#X obj 3912 1707 bng 19 250 50 0 empty empty empty 0 -10 0 12 #fcfcfc #000000 #000000;
#X obj 3912 1683 sel 3;
#X obj 3955 1706 bng 19 250 50 0 empty empty empty 0 -10 0 12 #fcfcfc #000000 #000000;
#X obj 3954 1683 sel 1;
#X obj 769 1454 part_render;
#X obj 939 1239 loadbang;
#X msg 907 1265 1 1 0;
#X obj 694 1232 loadbang;
#X obj 631 1298 part_color;
#X obj 847 1327 part_color;
#X obj 694 960 part_head;
#X obj 708 2003 alpha;
#X obj 1050 2000 alpha;
#X obj 1177 2042 tgl 19 0 empty empty empty 0 -10 0 12 #fcfcfc #000000 #000000 0 1;
#X floatatom 1202 2002 5 0 0 0 - - - 0;
#X obj 1004 1653 + 50;
#X obj 968 1716 sel 500;
#X obj 769 1416 part_killold 1;
#X obj 712 1077 part_source 10;
#X obj 694 1019 part_size 2;
#X obj 793 960 r rc-t;
#X msg 755 902 speed 5;
#X obj 946 2060 * 3;
#X obj 802 1005 * 3;
#X floatatom 802 1029 5 0 0 0 - - - 0;
#X obj 3263 1677 newWave;
#X msg 2964 1643 draw line;
#X msg 3039 1642 draw fill;
#X msg 3118 1643 draw point;
#X floatatom 3486 1340 5 0 0 0 - - - 0;
#X text 3485 1320 size;
#X floatatom 3628 1641 5 0 0 0 - - - 0;
#X text 3621 1592 height;
#X obj 3602 1239 vradio 19 1 0 10 empty empty empty 0 -10 0 12 #fcfcfc #000000 #000000 0;
#X text 3591 1217 action;
#X obj 3197 961 t a b;
#X obj 3483 1052 t a;
#X msg 3487 1020 K1 \$1;
#X obj 3487 995 / 10;
#X floatatom 3487 973 5 0 0 0 - - - 0;
#X obj 3545 994 / 10;
#X floatatom 3545 972 5 0 0 0 - - - 0;
#X msg 3545 1019 D1 \$1;
#X obj 3484 1165 t a;
#X msg 3486 1135 K1 \$1;
#X obj 3486 1110 / 10;
#X floatatom 3486 1088 5 0 0 0 - - - 0;
#X obj 3544 1109 / 10;
#X floatatom 3544 1087 5 0 0 0 - - - 0;
#X msg 3544 1134 D1 \$1;
#X obj 3482 1283 t a;
#X msg 3487 1247 K1 \$1;
#X obj 3487 1222 / 10;
#X floatatom 3487 1200 5 0 0 0 - - - 0;
#X obj 3545 1221 / 10;
#X floatatom 3545 1199 5 0 0 0 - - - 0;
#X msg 3545 1246 D1 \$1;
#X obj 3641 1060 bng 19 250 50 0 empty empty empty 0 -10 0 12 #fcfcfc #000000 #000000;
#X msg 3640 1081 1;
#X floatatom 3640 1105 5 0 0 0 - - - 0;
#X msg 3728 1087 0;
#X floatatom 3728 1110 5 0 0 0 - - - 0;
#X obj 3727 1064 del;
#X obj 3745 1016 loadbang;
#X msg 3746 1042 125;
#X floatatom 3640 1130 5 0 0 0 - - - 0;
#X obj 2965 1616 loadbang;
#X obj 3528 1317 loadbang;
#X obj 3681 1614 loadbang;
#X msg 3682 1639 -0.5;
#X obj 3640 1174 *;
#X floatatom 3641 1196 5 0 0 0 - - - 0;
#X floatatom 3641 1242 5 0 0 0 - - - 0;
#X obj 3642 1219 > 0;
#X obj 3641 1268 sel 1;
#X obj 3641 1292 bng 19 250 50 0 empty empty empty 0 -10 0 12 #fcfcfc #000000 #000000;
#X obj 3345 67 gemhead;
#X obj 3344 33 tgl 19 0 empty empty empty 0 -10 0 12 #fcfcfc #000000 #000000 0 1;
#X obj 3346 103 part_head;
#X obj 3262 543 part_render;
#X obj 3346 149 part_size 5;
#X obj 3343 272 part_source 10;
#X msg 3452 76 speed 5;
#X obj 3318 441 part_killold 5;
#X obj 3328 399 part_color;
#X obj 3361 353 loadbang;
#X obj 3453 272 pack f f f f;
#X floatatom 3453 250 2 0 0 0 - - - 0;
#X floatatom 3480 251 2 0 0 0 - - - 0;
#X floatatom 3507 251 2 0 0 0 - - - 0;
#X obj 3452 206 tgl 19 0 empty empty empty 0 -10 0 12 #fcfcfc #000000 #000000 0 1;
#X obj 3452 183 loadbang;
#X floatatom 4016 1162 5 0 0 0 - - - 0;
#X obj 4016 1094 r ch-d;
#X obj 4016 1116 * 100;
#X obj 3269 644 scaleXYZ;
#X floatatom 3343 613 5 0 0 0 - - - 0;
#X floatatom 3381 614 5 0 0 0 - - - 0;
#X floatatom 3423 608 5 0 0 0 - - - 0;
#X obj 3215 783 translateXYZ;
#X floatatom 3285 751 5 0 0 0 - - - 0;
#X floatatom 3323 754 5 0 0 0 - - - 0;
#X floatatom 3364 753 5 0 0 0 - - - 0;
#X obj 3451 535 loadbang;
#X msg 3424 561 -1;
#X obj 3665 278 color 1 0 0;
#X obj 3205 913 rotateXYZ;
#X floatatom 3303 893 5 0 0 0 - - - 0;
#X floatatom 3341 896 5 0 0 0 - - - 0;
#X floatatom 3382 897 5 0 0 0 - - - 0;
#X msg 816 1890 1;
#X msg 851 1891 1;
#X msg 887 1892 0;
#X msg 958 1264 0 1 1;
#X floatatom 3772 905 5 0 0 0 - - - 0;
#X obj 3772 837 r ch-d;
#X obj 3772 881 + 125;
#X obj 3772 859 * 1000;
#X msg 3126 1572 texture 2;
#X msg 283 1966 \$1 20;
#X obj 284 1938 * 0.25;
#X obj 1886 125 bng 19 250 50 0 empty empty empty 0 -10 0 12 #fcfcfc #000000 #000000;
#X msg 1885 146 1;
#X floatatom 1885 170 5 0 0 0 - - - 0;
#X msg 1926 148 0;
#X floatatom 1926 171 5 0 0 0 - - - 0;
#X obj 1925 125 del;
#X obj 1993 93 loadbang;
#X msg 1993 116 125;
#X floatatom 1888 200 5 0 0 0 - - - 0;
#X obj 1886 104 r hc;
#X floatatom 2015 795 5 0 0 0 - - - 0;
#X msg 1591 1039 draw line;
#X msg 1666 1038 draw fill;
#X msg 1745 1039 draw point;
#X obj 1592 1012 loadbang;
#X obj 2112 1023 r hc-v;
#X obj 282 1511 loadbang;
#X msg 247 1535 -2;
#X msg 286 1535 -1;
#X obj 120 2168 sphere 0.5;
#X floatatom 3818 668 5 0 0 0 - - - 0;
#X floatatom 3858 668 5 0 0 0 - - - 0;
#X floatatom 3898 669 5 0 0 0 - - - 0;
#X obj 3826 475 bng 19 250 50 0 empty empty empty 0 -10 0 12 #fcfcfc #000000 #000000;
#X msg 3825 496 1;
#X floatatom 3825 520 5 0 0 0 - - - 0;
#X msg 3866 498 0;
#X floatatom 3866 521 5 0 0 0 - - - 0;
#X floatatom 3821 544 5 0 0 0 - - - 0;
#X obj 3819 622 line;
#X floatatom 3819 647 5 0 0 0 - - - 0;
#X obj 3865 475 del;
#X obj 3884 430 loadbang;
#X obj 3821 570 *;
#X msg 3884 453 125;
#X msg 3820 597 \$1 400;
#X obj 3641 1039 r bd;
#X obj 3684 1150 r bd-v;
#X obj 3700 1538 r bd-d;
#X obj 3415 711 loadbang;
#X obj 3262 828 loadbang;
#X msg 3262 852 -45;
#X obj 3334 826 r bd-t;
#X obj 3383 826 r bd-c;
#X obj 3335 851 * 100;
#X obj 3439 825 r bd-a;
#X obj 4016 1138 + 1;
#X msg 3771 1432 force 20 5 -0.5;
#X msg 3360 376 1 0 0;
#X msg 3415 377 1 1 0;
#X obj 3453 228 metro 100;
#X floatatom 3550 191 5 0 0 0 - - - 0;
#X floatatom 3492 117 5 0 0 0 - - - 0;
#X obj 3384 851 * 33;
#X obj 3439 848 * 33;
#X msg 3439 734 -2;
#X obj 3896 1305 *;
#X floatatom 3894 1329 5 0 0 0 - - - 0;
#X obj 3951 1279 r ch-v;
#X obj 3894 1353 expr $f1 > 0;
#X floatatom 3896 1376 5 0 0 0 - - - 0;
#X obj 3898 1397 sel 1;
#X floatatom 3984 1378 5 0 0 0 - - - 0;
#X obj 3986 1399 sel 1;
#X obj 3986 1353 expr $f1 > 0.33;
#X floatatom 4103 1383 5 0 0 0 - - - 0;
#X obj 4105 1404 sel 1;
#X obj 4105 1358 expr $f1 > 0.66;
#X obj 3698 1561 * 0.5;
#X obj 3826 454 r hc;
#X obj 3866 543 r hc-v;
#X obj 3786 727 - 1;
#X obj 3325 989 r hc-t;
#X obj 3377 989 r hc-d;
#X obj 3865 566 * 3;
#X obj 3287 729 * -10;
#X obj 3326 729 * -6;
#X msg 3652 1431 position 1 1 20;
#X obj 3034 1248 bng 19 250 50 0 empty empty empty 0 -10 0 12 #fcfcfc #000000 #000000;
#X msg 3033 1269 1;
#X floatatom 3033 1293 5 0 0 0 - - - 0;
#X msg 3074 1271 0;
#X floatatom 3074 1294 5 0 0 0 - - - 0;
#X floatatom 3029 1317 5 0 0 0 - - - 0;
#X obj 3027 1395 line;
#X floatatom 3027 1420 5 0 0 0 - - - 0;
#X obj 3073 1248 del;
#X obj 3092 1203 loadbang;
#X obj 3029 1343 *;
#X msg 3092 1226 125;
#X msg 3028 1370 \$1 400;
#X obj 3073 1339 * 3;
#X msg 3528 1340 2;
#X obj 3057 1472 + 2;
#X msg 3408 735 0;
#X obj 3698 1587 + 0.1;
#X msg 3461 559 1;
#X msg 3504 559 -3;
#X msg 3471 735 1;
#X obj 3034 1227 r hc;
#X obj 3074 1316 r hc-v;
#X msg 3895 1433 noise 0.5;
#X msg 3979 1432 noise 1;
#X msg 4098 1437 noise 2;
#X obj 1889 1140 cube 0.5;
#X msg 2016 767 -2;
#X obj 2100 405 * 10;
#X obj 2192 1102 gemhead;
#X obj 1945 2142 rotateXYZ 135 0 0;
#X floatatom 1984 2111 5 0 0 0 - - - 0;
#X obj 1944 2050 scaleXYZ;
#X obj 1946 1910 translateXYZ;
#X floatatom 2026 2112 5 0 0 0 - - - 0;
#X floatatom 2066 2113 5 0 0 0 - - - 0;
#X floatatom 1977 2022 5 0 0 0 - - - 0;
#X floatatom 2019 2023 5 0 0 0 - - - 0;
#X floatatom 2059 2024 5 0 0 0 - - - 0;
#X floatatom 1974 1867 5 0 0 0 - - - 0;
#X floatatom 2021 1867 5 0 0 0 - - - 0;
#X obj 1974 1810 loadbang;
#X obj 2015 1969 loadbang;
#X msg 1979 1998 4;
#X msg 2061 1999 1;
#X floatatom 2071 1862 5 0 0 0 - - - 0;
#X msg 2072 1834 -2;
#X msg 2021 1840 4;
#X msg 2019 2001 2;
#X obj 2331 897 r sn;
#X obj 2331 918 bng 19 250 50 0 empty empty empty 0 -10 0 12 #fcfcfc #000000 #000000;
#X msg 2330 939 1;
#X floatatom 2330 963 5 0 0 0 - - - 0;
#X msg 2405 940 0;
#X floatatom 2405 963 5 0 0 0 - - - 0;
#X floatatom 2326 987 5 0 0 0 - - - 0;
#X obj 2304 1127 line;
#X floatatom 2303 1152 5 0 0 0 - - - 0;
#X obj 2404 917 del;
#X floatatom 2419 887 5 0 0 0 - - - 0;
#X obj 2462 865 loadbang;
#X msg 2462 888 100;
#X obj 2419 819 r sn-d;
#X msg 2305 1104 \$1 400;
#X obj 2457 960 r sn-v;
#X obj 2299 1184 + 1;
#X obj 2326 1012 *;
#X obj 2457 987 * 10;
#X floatatom 2299 1214 5 0 0 0 - - - 0;
#X floatatom 2467 1040 5 0 0 0 - - - 0;
#X obj 2247 1057 tgl 19 0 empty empty empty 0 -10 0 12 #fcfcfc #000000 #000000 0 1;
#X obj 2630 1994 r sn-t;
#X obj 2638 2063 * 3;
#X msg 1995 534 0 0.5 1;
#X msg 1921 533 0 0.75 1;
#X obj 2419 863 + 100;
#X obj 1707 1452 part_head;
#X obj 1745 1844 part_render;
#X obj 1705 1551 part_source 10;
#X obj 1706 1494 part_size 5;
#X msg 1863 1374 speed 5;
#X obj 1705 1721 part_killold 100;
#X obj 1704 1656 part_color;
#X obj 1874 1589 loadbang;
#X obj 2614 2184 + 2;
#X obj 1894 1670 r sn-a;
#X obj 2457 1904 r sn;
#X obj 2474 2018 r sn-v;
#X obj 1920 1784 + 10;
#X obj 1696 2097 r sn-c;
#X obj 1697 2135 * 100;
#X obj 1711 2177 + 100;
#X msg 1871 1633 1 1 0;
#X msg 1922 1633 1 1 1;
#X msg 662 1258 1 0 0;
#X msg 713 1257 1 1 0;
#X obj 2458 2084 expr $f1 > 0;
#X obj 2046 2463 alpha;
#X msg 1658 1293 0.1 -0.1 0 0.05;
#X msg 1659 1331 0 0.1 0 0.1;
#X obj 1497 1378 part_velocity point 0 0 0.1;
#X msg 1560 1316 symbol sphere;
#X obj 1913 1731 * 3;
#X obj 2419 841 * 250;
#X obj 1145 361 tgl 19 0 empty empty empty 0 -10 0 12 #fcfcfc #000000 #000000 0 1;
#X obj 1144 247 bng 19 250 50 0 empty empty empty 0 -10 0 12 #fcfcfc #000000 #000000;
#X msg 1143 268 1;
#X floatatom 1143 292 5 0 0 0 - - - 0;
#X msg 1215 286 0;
#X floatatom 1215 309 5 0 0 0 - - - 0;
#X obj 1214 263 del;
#X obj 1233 218 loadbang;
#X msg 1233 241 125;
#X floatatom 1145 328 5 0 0 0 - - - 0;
#X floatatom 1214 199 5 0 0 0 - - - 0;
#X obj 1141 392 gemhead;
#X obj 1144 226 r lt;
#X obj 1214 131 r lt-d;
#X obj 1214 153 * 100;
#X obj 1214 175 + 100;
#X obj 1148 734 translateXYZ;
#X obj 1373 683 r lt-t;
#X obj 1154 1183 alpha;
#X obj 1219 1164 tgl 19 0 empty empty empty 0 -10 0 12 #fcfcfc #000000 #000000 0 1;
#X floatatom 1246 1165 5 0 0 0 - - - 0;
#X obj 1139 590 color 0 1 0 0.5;
#X obj 1271 505 hsl 162 19 0 1 0 0 empty empty empty -2 -10 0 12 #fcfcfc #000000 #000000 0 1;
#X msg 1216 1143 auto $f1;
#X obj 1217 1120 tgl 19 0 empty empty empty 0 -10 0 12 #fcfcfc #000000 #000000 0 1;
#X floatatom 1268 532 5 0 0 0 - - - 0;
#X msg 1241 559 0 1 0 \$1;
#X obj 1151 1238 square 0.5;
#X obj 1143 907 rotateXYZ 0 0 0;
#X obj 1237 1214 r lt-v;
#X obj 1267 451 loadbang;
#X msg 1267 475 0.4;
#X msg 1918 770 -1.5;
#X msg 1965 773 -1;
#X obj 1542 337 tgl 19 0 empty empty empty 0 -10 0 12 #fcfcfc #000000 #000000 0 1;
#X obj 1541 223 bng 19 250 50 0 empty empty empty 0 -10 0 12 #fcfcfc #000000 #000000;
#X msg 1540 244 1;
#X floatatom 1540 268 5 0 0 0 - - - 0;
#X msg 1612 262 0;
#X floatatom 1612 285 5 0 0 0 - - - 0;
#X obj 1611 239 del;
#X obj 1630 194 loadbang;
#X msg 1630 217 125;
#X floatatom 1542 304 5 0 0 0 - - - 0;
#X floatatom 1611 175 5 0 0 0 - - - 0;
#X obj 1538 368 gemhead;
#X obj 1611 129 * 100;
#X obj 1611 151 + 100;
#X obj 1522 619 translateXYZ;
#X obj 1518 879 alpha;
#X obj 1583 860 tgl 19 0 empty empty empty 0 -10 0 12 #fcfcfc #000000 #000000 0 1;
#X floatatom 1610 861 5 0 0 0 - - - 0;
#X obj 1683 367 hsl 162 19 0 1 0 0 empty empty empty -2 -10 0 12 #fcfcfc #000000 #000000 0 1;
#X msg 1580 839 auto $f1;
#X obj 1581 816 tgl 19 0 empty empty empty 0 -10 0 12 #fcfcfc #000000 #000000 0 1;
#X floatatom 1680 394 5 0 0 0 - - - 0;
#X obj 1520 739 rotateXYZ 0 0 0;
#X obj 1679 313 loadbang;
#X msg 1679 337 0.4;
#X floatatom 1548 587 5 0 0 0 - - - 0;
#X obj 1541 202 r ht;
#X obj 1611 107 r ht-d;
#X obj 1517 961 circle 0.5;
#X obj 1519 429 color 1 1 0 0.5;
#X obj 1257 652 loadbang;
#X obj 265 49 r rs;
#X obj 328 149 r rs-d;
#X obj 326 339 r bd-t;
#X obj 285 1815 r rs;
#X obj 339 1738 r rs-d;
#X obj 371 1905 r rs-v;
#X floatatom 327 2125 5 0 0 0 - - - 0;
#X obj 327 2076 loadbang;
#X msg 327 2100 4;
#X obj 158 939 r rs-t;
#X obj 158 985 * 1;
#X obj 140 1043 + 1;
#X obj 1603 937 r ht-v;
#X msg 1653 421 0 0 1 \$1;
#X msg 140 558 0 0 1;
#X msg 191 557 0 1 1;
#X obj 1150 1042 scaleXYZ;
#X floatatom 1222 1006 5 0 0 0 - - - 0;
#X floatatom 1262 1007 5 0 0 0 - - - 0;
#X floatatom 1302 1007 5 0 0 0 - - - 0;
#X floatatom 1251 696 5 0 0 0 - - - 0;
#X floatatom 1290 695 5 0 0 0 - - - 0;
#X floatatom 1362 758 5 0 0 0 - - - 0;
#X msg 1322 676 0;
#X obj 1240 943 loadbang;
#X msg 1305 967 0;
#X msg 1231 973 2;
#X msg 1266 971 1;
#X obj 2166 1843 r sn-v;
#X obj 2170 1897 * -5;
#X msg 1974 1837 -13;
#X msg 1257 676 4;
#X msg 1289 675 0;
#X floatatom 997 2305 5 0 0 0 - - - 0;
#X msg 1149 2237 0;
#X obj 1372 705 * 4;
#X obj 1374 726 - 2;
#X obj 1326 791 * 300;
#X obj 1173 831 * 300;
#X obj 1186 808 r lt-d;
#X obj 1548 528 loadbang;
#X msg 1548 552 -1;
#X floatatom 1588 586 5 0 0 0 - - - 0;
#X msg 1620 553 0;
#X msg 1587 552 0;
#X floatatom 1717 603 5 0 0 0 - - - 0;
#X obj 1727 550 * 4;
#X obj 1729 571 - 2;
#X obj 1728 528 r ht-t;
#X obj 1725 642 * 300;
#X obj 1554 707 * 300;
#X obj 1567 684 r ht-d;
#X connect 0 0 13 0;
#X connect 1 0 14 0;
#X connect 2 0 15 0;
#X connect 3 0 16 0;
#X connect 4 0 17 0;
#X connect 10 0 18 0;
#X connect 11 0 19 0;
#X connect 12 0 27 0;
#X connect 12 0 31 0;
#X connect 20 0 44 0;
#X connect 22 0 21 0;
#X connect 23 0 21 0;
#X connect 25 0 21 0;
#X connect 26 0 25 0;
#X connect 27 0 28 0;
#X connect 28 0 50 0;
#X connect 29 0 30 0;
#X connect 30 0 50 0;
#X connect 31 0 29 0;
#X connect 32 0 37 0;
#X connect 33 0 40 0;
#X connect 34 0 662 0;
#X connect 35 0 662 0;
#X connect 36 0 136 0;
#X connect 38 0 32 0;
#X connect 39 0 423 0;
#X connect 40 0 58 0;
#X connect 41 0 40 1;
#X connect 42 0 40 2;
#X connect 43 0 40 3;
#X connect 44 0 56 0;
#X connect 45 0 94 0;
#X connect 46 0 33 0;
#X connect 47 0 48 0;
#X connect 48 0 56 1;
#X connect 49 0 666 0;
#X connect 49 0 665 0;
#X connect 50 0 403 0;
#X connect 51 0 52 0;
#X connect 52 0 31 1;
#X connect 53 0 44 0;
#X connect 54 0 57 0;
#X connect 55 0 20 0;
#X connect 56 0 93 0;
#X connect 57 0 423 1;
#X connect 58 0 423 0;
#X connect 59 0 60 0;
#X connect 59 0 67 0;
#X connect 60 0 61 0;
#X connect 61 0 64 0;
#X connect 62 0 63 0;
#X connect 63 0 64 0;
#X connect 64 0 460 0;
#X connect 65 0 66 0;
#X connect 67 0 62 0;
#X connect 68 0 75 0;
#X connect 69 0 59 0;
#X connect 70 0 137 0;
#X connect 70 0 137 1;
#X connect 71 0 58 1;
#X connect 72 0 58 2;
#X connect 73 0 58 3;
#X connect 75 0 67 1;
#X connect 76 0 77 0;
#X connect 76 0 84 0;
#X connect 77 0 78 0;
#X connect 78 0 81 0;
#X connect 79 0 80 0;
#X connect 80 0 81 0;
#X connect 81 0 86 0;
#X connect 82 0 83 0;
#X connect 84 0 79 0;
#X connect 85 0 87 0;
#X connect 86 0 90 0;
#X connect 87 0 84 1;
#X connect 88 0 76 0;
#X connect 89 0 130 0;
#X connect 90 0 82 0;
#X connect 91 0 423 0;
#X connect 92 0 423 0;
#X connect 93 0 45 0;
#X connect 94 0 46 0;
#X connect 95 0 151 0;
#X connect 97 0 293 0;
#X connect 98 0 97 0;
#X connect 100 0 117 0;
#X connect 100 0 99 0;
#X connect 101 0 117 0;
#X connect 101 0 99 0;
#X connect 102 0 117 0;
#X connect 102 0 99 0;
#X connect 103 0 104 0;
#X connect 103 0 108 0;
#X connect 103 0 127 0;
#X connect 104 0 105 0;
#X connect 105 0 112 0;
#X connect 106 0 107 0;
#X connect 107 0 112 0;
#X connect 108 0 106 0;
#X connect 109 0 110 0;
#X connect 110 0 108 1;
#X connect 111 0 103 0;
#X connect 112 0 98 0;
#X connect 113 0 294 0;
#X connect 114 0 113 1;
#X connect 115 0 113 2;
#X connect 116 0 113 3;
#X connect 118 0 295 0;
#X connect 119 0 118 1;
#X connect 120 0 118 2;
#X connect 121 0 118 3;
#X connect 122 0 113 0;
#X connect 123 0 118 0;
#X connect 124 0 122 1;
#X connect 125 0 122 2;
#X connect 126 0 122 3;
#X connect 127 0 128 0;
#X connect 127 0 298 0;
#X connect 128 0 299 0;
#X connect 129 0 208 0;
#X connect 129 0 274 0;
#X connect 130 0 86 1;
#X connect 131 0 209 0;
#X connect 131 0 305 0;
#X connect 132 0 133 0;
#X connect 133 0 108 0;
#X connect 134 0 135 0;
#X connect 135 0 132 0;
#X connect 137 0 74 0;
#X connect 138 0 140 0;
#X connect 139 0 138 0;
#X connect 140 0 65 0;
#X connect 141 0 33 1;
#X connect 141 0 33 2;
#X connect 142 0 145 3;
#X connect 143 0 144 0;
#X connect 143 0 153 0;
#X connect 145 0 93 3;
#X connect 146 0 145 0;
#X connect 147 0 145 1;
#X connect 148 0 145 2;
#X connect 149 0 255 0;
#X connect 150 0 149 0;
#X connect 151 0 142 0;
#X connect 152 0 95 0;
#X connect 153 0 96 0;
#X connect 154 0 123 1;
#X connect 155 0 123 2;
#X connect 156 0 123 3;
#X connect 157 0 158 0;
#X connect 158 0 127 1;
#X connect 160 0 159 0;
#X connect 161 0 159 0;
#X connect 162 0 159 0;
#X connect 163 0 159 1;
#X connect 165 0 159 2;
#X connect 167 0 159 3;
#X connect 169 0 159 0;
#X connect 169 1 159 0;
#X connect 170 0 159 0;
#X connect 171 0 159 0;
#X connect 172 0 171 0;
#X connect 173 0 172 0;
#X connect 174 0 173 0;
#X connect 175 0 177 0;
#X connect 176 0 175 0;
#X connect 177 0 171 0;
#X connect 178 0 159 0;
#X connect 179 0 178 0;
#X connect 180 0 179 0;
#X connect 181 0 180 0;
#X connect 182 0 184 0;
#X connect 183 0 182 0;
#X connect 184 0 178 0;
#X connect 185 0 159 0;
#X connect 186 0 185 0;
#X connect 187 0 186 0;
#X connect 188 0 187 0;
#X connect 189 0 191 0;
#X connect 190 0 189 0;
#X connect 191 0 185 0;
#X connect 192 0 159 0;
#X connect 193 0 159 0;
#X connect 194 0 246 0;
#X connect 195 0 508 0;
#X connect 196 0 195 1;
#X connect 197 0 195 0;
#X connect 198 0 197 0;
#X connect 199 0 195 2;
#X connect 200 0 195 3;
#X connect 201 0 197 1;
#X connect 202 0 197 2;
#X connect 203 0 197 3;
#X connect 204 0 198 1;
#X connect 205 0 198 2;
#X connect 210 0 159 0;
#X connect 211 0 100 0;
#X connect 212 0 39 0;
#X connect 213 0 214 0;
#X connect 213 0 218 0;
#X connect 214 0 215 0;
#X connect 215 0 221 0;
#X connect 216 0 217 0;
#X connect 217 0 221 0;
#X connect 218 0 216 0;
#X connect 219 0 220 0;
#X connect 220 0 218 1;
#X connect 221 0 241 0;
#X connect 222 0 194 0;
#X connect 223 0 160 0;
#X connect 224 0 225 0;
#X connect 224 0 229 0;
#X connect 225 0 226 0;
#X connect 226 0 232 0;
#X connect 227 0 228 0;
#X connect 228 0 232 0;
#X connect 229 0 227 0;
#X connect 230 0 231 0;
#X connect 231 0 229 1;
#X connect 232 0 55 0;
#X connect 233 0 393 0;
#X connect 233 0 394 0;
#X connect 233 0 395 0;
#X connect 234 0 276 0;
#X connect 234 0 277 0;
#X connect 235 0 236 0;
#X connect 236 0 163 0;
#X connect 237 0 238 0;
#X connect 238 0 165 0;
#X connect 239 0 36 0;
#X connect 240 0 618 0;
#X connect 240 0 619 0;
#X connect 240 0 509 0;
#X connect 241 0 242 0;
#X connect 242 0 578 0;
#X connect 243 0 244 0;
#X connect 244 0 245 0;
#X connect 245 0 167 0;
#X connect 246 0 248 0;
#X connect 247 0 198 0;
#X connect 248 0 249 0;
#X connect 249 0 256 0;
#X connect 250 0 246 0;
#X connect 251 0 247 0;
#X connect 252 0 253 0;
#X connect 252 0 254 0;
#X connect 253 0 201 0;
#X connect 254 0 203 0;
#X connect 255 0 145 0;
#X connect 256 0 251 0;
#X connect 257 0 556 0;
#X connect 257 0 555 0;
#X connect 258 0 266 0;
#X connect 259 0 260 3;
#X connect 260 0 249 3;
#X connect 261 0 260 0;
#X connect 262 0 260 1;
#X connect 263 0 260 2;
#X connect 264 0 268 0;
#X connect 265 0 264 0;
#X connect 266 0 259 0;
#X connect 268 0 260 0;
#X connect 269 0 267 0;
#X connect 269 0 510 0;
#X connect 270 0 251 1;
#X connect 272 0 270 0;
#X connect 273 0 271 0;
#X connect 273 0 272 0;
#X connect 274 0 684 0;
#X connect 275 0 154 0;
#X connect 275 0 155 0;
#X connect 275 0 156 0;
#X connect 276 0 119 0;
#X connect 276 0 120 0;
#X connect 277 0 121 0;
#X connect 278 0 279 0;
#X connect 278 0 280 0;
#X connect 279 0 278 1;
#X connect 280 0 284 0;
#X connect 280 0 286 0;
#X connect 281 0 282 0;
#X connect 282 0 278 1;
#X connect 284 0 281 0;
#X connect 284 0 283 0;
#X connect 286 0 285 0;
#X connect 287 0 122 0;
#X connect 287 0 123 0;
#X connect 288 0 396 0;
#X connect 288 0 289 0;
#X connect 289 0 292 1;
#X connect 290 0 577 0;
#X connect 290 0 576 0;
#X connect 291 0 300 0;
#X connect 292 0 300 0;
#X connect 293 0 302 0;
#X connect 294 0 99 0;
#X connect 295 0 117 0;
#X connect 296 0 295 0;
#X connect 296 0 294 0;
#X connect 297 0 295 1;
#X connect 297 0 294 1;
#X connect 298 0 127 1;
#X connect 299 0 157 0;
#X connect 299 1 124 0;
#X connect 299 1 125 0;
#X connect 299 1 126 0;
#X connect 299 1 275 0;
#X connect 300 0 287 0;
#X connect 301 0 291 0;
#X connect 301 0 292 0;
#X connect 302 0 301 0;
#X connect 303 0 306 0;
#X connect 304 0 293 0;
#X connect 305 0 117 2;
#X connect 305 0 99 2;
#X connect 306 0 307 0;
#X connect 307 0 302 1;
#X connect 309 0 308 0;
#X connect 310 0 308 0;
#X connect 311 0 308 0;
#X connect 312 0 308 1;
#X connect 314 0 308 2;
#X connect 316 0 308 3;
#X connect 318 0 308 0;
#X connect 318 1 308 0;
#X connect 319 0 308 0;
#X connect 320 0 319 0;
#X connect 321 0 320 0;
#X connect 322 0 321 0;
#X connect 323 0 325 0;
#X connect 324 0 323 0;
#X connect 325 0 319 0;
#X connect 326 0 308 0;
#X connect 327 0 326 0;
#X connect 328 0 327 0;
#X connect 329 0 328 0;
#X connect 330 0 332 0;
#X connect 331 0 330 0;
#X connect 332 0 326 0;
#X connect 333 0 308 0;
#X connect 334 0 333 0;
#X connect 335 0 334 0;
#X connect 336 0 335 0;
#X connect 337 0 339 0;
#X connect 338 0 337 0;
#X connect 339 0 333 0;
#X connect 340 0 341 0;
#X connect 340 0 345 0;
#X connect 341 0 342 0;
#X connect 342 0 348 0;
#X connect 343 0 344 0;
#X connect 344 0 348 0;
#X connect 345 0 343 0;
#X connect 346 0 347 0;
#X connect 347 0 345 1;
#X connect 348 0 353 0;
#X connect 349 0 309 0;
#X connect 350 0 496 0;
#X connect 351 0 352 0;
#X connect 352 0 314 0;
#X connect 353 0 354 0;
#X connect 354 0 356 0;
#X connect 355 0 357 0;
#X connect 356 0 355 0;
#X connect 357 0 358 0;
#X connect 358 0 316 0;
#X connect 359 0 361 0;
#X connect 360 0 359 0;
#X connect 361 0 363 0;
#X connect 362 0 378 0;
#X connect 363 0 364 0;
#X connect 364 0 367 0;
#X connect 365 0 361 0;
#X connect 366 0 362 0;
#X connect 367 0 366 0;
#X connect 368 0 452 0;
#X connect 368 0 453 0;
#X connect 369 0 364 3;
#X connect 370 0 369 0;
#X connect 371 0 369 1;
#X connect 372 0 369 2;
#X connect 373 0 454 0;
#X connect 374 0 373 0;
#X connect 375 0 67 0;
#X connect 376 0 377 0;
#X connect 377 0 450 0;
#X connect 378 0 382 0;
#X connect 379 0 378 1;
#X connect 380 0 378 2;
#X connect 381 0 378 3;
#X connect 382 0 389 0;
#X connect 383 0 382 1;
#X connect 384 0 382 2;
#X connect 385 0 382 3;
#X connect 386 0 387 0;
#X connect 386 0 501 0;
#X connect 386 0 500 0;
#X connect 387 0 379 0;
#X connect 389 0 318 0;
#X connect 390 0 389 1;
#X connect 391 0 389 2;
#X connect 392 0 389 3;
#X connect 393 0 114 0;
#X connect 394 0 115 0;
#X connect 395 0 116 0;
#X connect 396 0 292 2;
#X connect 398 0 400 0;
#X connect 399 0 397 0;
#X connect 400 0 399 0;
#X connect 401 0 308 0;
#X connect 402 0 54 0;
#X connect 403 0 402 0;
#X connect 404 0 405 0;
#X connect 404 0 409 0;
#X connect 405 0 406 0;
#X connect 406 0 412 0;
#X connect 407 0 408 0;
#X connect 408 0 412 0;
#X connect 409 0 407 0;
#X connect 410 0 411 0;
#X connect 411 0 409 1;
#X connect 413 0 404 0;
#X connect 414 0 198 3;
#X connect 415 0 508 0;
#X connect 416 0 508 0;
#X connect 417 0 508 0;
#X connect 418 0 415 0;
#X connect 419 0 508 1;
#X connect 420 0 421 0;
#X connect 420 0 422 0;
#X connect 421 0 71 0;
#X connect 422 0 72 0;
#X connect 424 0 475 0;
#X connect 427 0 428 0;
#X connect 427 0 435 0;
#X connect 428 0 429 0;
#X connect 429 0 432 0;
#X connect 430 0 431 0;
#X connect 431 0 432 0;
#X connect 432 0 437 0;
#X connect 433 0 434 0;
#X connect 434 0 424 0;
#X connect 434 0 426 0;
#X connect 434 0 425 0;
#X connect 435 0 430 0;
#X connect 436 0 438 0;
#X connect 437 0 439 0;
#X connect 438 0 435 1;
#X connect 439 0 433 0;
#X connect 440 0 340 0;
#X connect 441 0 353 1;
#X connect 442 0 472 0;
#X connect 443 0 498 0;
#X connect 443 0 502 0;
#X connect 443 0 459 0;
#X connect 444 0 445 0;
#X connect 445 0 390 0;
#X connect 446 0 448 0;
#X connect 447 0 457 0;
#X connect 448 0 390 0;
#X connect 449 0 458 0;
#X connect 450 0 375 0;
#X connect 451 0 308 0;
#X connect 452 0 367 1;
#X connect 453 0 367 2;
#X connect 454 0 369 0;
#X connect 455 0 369 3;
#X connect 456 0 363 1;
#X connect 457 0 391 0;
#X connect 458 0 392 0;
#X connect 459 0 384 0;
#X connect 460 0 461 0;
#X connect 461 0 463 0;
#X connect 461 0 468 0;
#X connect 461 0 471 0;
#X connect 462 0 460 1;
#X connect 463 0 464 0;
#X connect 464 0 465 0;
#X connect 465 0 505 0;
#X connect 466 0 467 0;
#X connect 467 0 506 0;
#X connect 468 0 466 0;
#X connect 469 0 470 0;
#X connect 470 0 507 0;
#X connect 471 0 469 0;
#X connect 472 0 499 0;
#X connect 473 0 427 0;
#X connect 474 0 478 0;
#X connect 478 0 437 1;
#X connect 479 0 383 0;
#X connect 480 0 384 0;
#X connect 481 0 308 0;
#X connect 482 0 483 0;
#X connect 482 0 490 0;
#X connect 483 0 484 0;
#X connect 484 0 487 0;
#X connect 485 0 486 0;
#X connect 486 0 487 0;
#X connect 487 0 492 0;
#X connect 488 0 489 0;
#X connect 489 0 497 0;
#X connect 490 0 485 0;
#X connect 491 0 493 0;
#X connect 492 0 494 0;
#X connect 493 0 490 1;
#X connect 494 0 488 0;
#X connect 495 0 492 1;
#X connect 496 0 312 0;
#X connect 497 0 312 0;
#X connect 498 0 383 0;
#X connect 499 0 314 0;
#X connect 500 0 380 0;
#X connect 501 0 381 0;
#X connect 502 0 385 0;
#X connect 503 0 482 0;
#X connect 504 0 495 0;
#X connect 505 0 308 0;
#X connect 506 0 308 0;
#X connect 507 0 308 0;
#X connect 509 0 414 0;
#X connect 510 0 258 0;
#X connect 511 0 558 0;
#X connect 512 0 169 0;
#X connect 513 0 512 1;
#X connect 514 0 512 0;
#X connect 515 0 514 0;
#X connect 516 0 512 2;
#X connect 517 0 512 3;
#X connect 518 0 514 1;
#X connect 519 0 514 2;
#X connect 520 0 514 3;
#X connect 521 0 515 1;
#X connect 522 0 515 2;
#X connect 523 0 681 0;
#X connect 523 0 529 0;
#X connect 523 0 528 0;
#X connect 524 0 525 0;
#X connect 524 0 526 0;
#X connect 524 0 530 0;
#X connect 525 0 518 0;
#X connect 526 0 520 0;
#X connect 527 0 515 3;
#X connect 528 0 527 0;
#X connect 529 0 522 0;
#X connect 530 0 519 0;
#X connect 531 0 532 0;
#X connect 532 0 533 0;
#X connect 532 0 540 0;
#X connect 533 0 534 0;
#X connect 534 0 537 0;
#X connect 535 0 536 0;
#X connect 536 0 537 0;
#X connect 537 0 548 0;
#X connect 538 0 539 0;
#X connect 539 0 547 0;
#X connect 540 0 535 0;
#X connect 541 0 540 1;
#X connect 542 0 543 0;
#X connect 543 0 540 1;
#X connect 544 0 585 0;
#X connect 545 0 538 0;
#X connect 546 0 549 0;
#X connect 547 0 550 0;
#X connect 548 0 545 0;
#X connect 548 0 552 0;
#X connect 549 0 551 0;
#X connect 550 0 516 0;
#X connect 550 0 517 0;
#X connect 551 0 548 1;
#X connect 552 0 511 0;
#X connect 553 0 554 0;
#X connect 554 0 566 0;
#X connect 555 0 256 2;
#X connect 556 0 256 1;
#X connect 557 0 541 0;
#X connect 558 0 561 0;
#X connect 559 0 515 0;
#X connect 560 0 564 0;
#X connect 561 0 560 0;
#X connect 562 0 558 0;
#X connect 563 0 559 0;
#X connect 564 0 582 0;
#X connect 565 0 574 0;
#X connect 565 0 575 0;
#X connect 566 0 163 0;
#X connect 567 0 561 1;
#X connect 567 0 584 0;
#X connect 568 0 213 0;
#X connect 569 0 241 1;
#X connect 570 0 563 1;
#X connect 571 0 572 0;
#X connect 572 0 573 0;
#X connect 573 0 513 0;
#X connect 574 0 564 1;
#X connect 575 0 564 2;
#X connect 576 0 291 1;
#X connect 577 0 291 2;
#X connect 578 0 243 0;
#X connect 580 0 582 2;
#X connect 581 0 582 2;
#X connect 582 0 563 0;
#X connect 583 0 582 1;
#X connect 584 0 570 0;
#X connect 585 0 557 0;
#X connect 586 0 597 0;
#X connect 587 0 588 0;
#X connect 587 0 592 0;
#X connect 588 0 589 0;
#X connect 589 0 595 0;
#X connect 590 0 591 0;
#X connect 591 0 595 0;
#X connect 592 0 590 0;
#X connect 593 0 594 0;
#X connect 594 0 592 1;
#X connect 595 0 586 0;
#X connect 596 0 592 0;
#X connect 597 0 607 0;
#X connect 598 0 587 0;
#X connect 599 0 600 0;
#X connect 600 0 601 0;
#X connect 601 0 596 0;
#X connect 602 0 614 0;
#X connect 603 0 686 0;
#X connect 604 0 613 0;
#X connect 605 0 604 0;
#X connect 606 0 604 1;
#X connect 607 0 602 0;
#X connect 608 0 611 0;
#X connect 609 0 604 0;
#X connect 610 0 609 0;
#X connect 611 0 612 0;
#X connect 612 0 607 1;
#X connect 614 0 667 0;
#X connect 615 0 613 1;
#X connect 616 0 617 0;
#X connect 617 0 611 0;
#X connect 618 0 204 0;
#X connect 619 0 205 0;
#X connect 620 0 631 0;
#X connect 621 0 622 0;
#X connect 621 0 626 0;
#X connect 622 0 623 0;
#X connect 623 0 629 0;
#X connect 624 0 625 0;
#X connect 625 0 629 0;
#X connect 626 0 624 0;
#X connect 627 0 628 0;
#X connect 628 0 626 1;
#X connect 629 0 620 0;
#X connect 630 0 626 0;
#X connect 631 0 649 0;
#X connect 632 0 633 0;
#X connect 633 0 630 0;
#X connect 634 0 642 0;
#X connect 635 0 648 0;
#X connect 636 0 635 0;
#X connect 637 0 635 1;
#X connect 638 0 641 0;
#X connect 639 0 635 0;
#X connect 640 0 639 0;
#X connect 641 0 664 0;
#X connect 642 0 635 0;
#X connect 643 0 644 0;
#X connect 644 0 641 0;
#X connect 645 0 634 1;
#X connect 646 0 621 0;
#X connect 647 0 632 0;
#X connect 649 0 634 0;
#X connect 650 0 682 0;
#X connect 650 0 683 0;
#X connect 650 0 674 0;
#X connect 651 0 224 0;
#X connect 652 0 207 0;
#X connect 652 0 239 0;
#X connect 653 0 152 0;
#X connect 653 0 206 0;
#X connect 654 0 12 0;
#X connect 655 0 38 0;
#X connect 656 0 403 1;
#X connect 657 0 423 2;
#X connect 658 0 659 0;
#X connect 659 0 657 0;
#X connect 660 0 661 0;
#X connect 661 0 34 0;
#X connect 661 0 35 0;
#X connect 662 0 141 0;
#X connect 663 0 648 1;
#X connect 664 0 649 1;
#X connect 665 0 45 1;
#X connect 666 0 45 2;
#X connect 667 0 604 0;
#X connect 668 0 667 1;
#X connect 669 0 667 2;
#X connect 670 0 667 3;
#X connect 671 0 602 1;
#X connect 672 0 602 2;
#X connect 673 0 602 2;
#X connect 675 0 677 0;
#X connect 675 0 678 0;
#X connect 675 0 676 0;
#X connect 676 0 670 0;
#X connect 677 0 668 0;
#X connect 678 0 669 0;
#X connect 679 0 680 0;
#X connect 680 0 527 0;
#X connect 681 0 521 0;
#X connect 682 0 671 0;
#X connect 683 0 672 0;
#X connect 684 0 99 1;
#X connect 684 0 117 1;
#X connect 685 0 684 0;
#X connect 686 0 687 0;
#X connect 686 0 688 0;
#X connect 687 0 673 0;
#X connect 688 0 614 2;
#X connect 689 0 614 1;
#X connect 690 0 689 0;
#X connect 691 0 692 0;
#X connect 691 0 695 0;
#X connect 691 0 694 0;
#X connect 692 0 645 0;
#X connect 693 0 634 2;
#X connect 695 0 693 0;
#X connect 696 0 634 2;
#X connect 696 0 700 0;
#X connect 697 0 698 0;
#X connect 698 0 696 0;
#X connect 699 0 697 0;
#X connect 700 0 642 2;
#X connect 701 0 642 1;
#X connect 702 0 701 0;
