#N canvas 0 205 1440 762 12;
#X obj 34 6 cnv 19 1210 100 empty empty empty 20 12 0 12 #0400ff #404040 0;
#X obj 35 111 cnv 19 1210 230 empty empty empty 20 12 0 12 #ff8300 #404040 0;
#X obj 34 345 cnv 19 1210 275 empty empty empty 20 12 0 12 #0f4710 #404040 0;
#X obj 34 624 cnv 19 1210 130 empty empty empty 20 12 0 12 #ff0400 #404040 0;
#X obj 39 349 cnv 19 120 265 empty empty empty 20 12 0 12 #c6ffc7 #404040 0;
#X obj 63 354 ctlin 24 10;
#X obj 63 424 vsl 19 162 0 1 0 0 empty empty empty 0 -9 0 12 #00ff04 #000000 #000000 0 1;
#X obj 63 377 / 127;
#X floatatom 63 401 5 0 0 0 - - - 0;
#X obj 62 592 s bd-v;
#X obj 165 349 cnv 19 120 265 empty empty empty 20 12 0 12 #c6ffc7 #404040 0;
#X obj 291 349 cnv 19 100 265 empty empty empty 20 12 0 12 #c6ffc7 #404040 0;
#X obj 396 349 cnv 19 100 265 empty empty empty 20 12 0 12 #c6ffc7 #404040 0;
#X obj 501 349 cnv 19 100 265 empty empty empty 20 12 0 12 #c6ffc7 #404040 0;
#X obj 607 350 cnv 19 100 265 empty empty empty 20 12 0 12 #c6ffc7 #404040 0;
#X obj 713 350 cnv 19 100 265 empty empty empty 20 12 0 12 #c6ffc7 #404040 0;
#X obj 819 350 cnv 19 100 265 empty empty empty 20 12 0 12 #c6ffc7 #404040 0;
#X obj 925 350 cnv 19 100 265 empty empty empty 20 12 0 12 #c6ffc7 #404040 0;
#X obj 1031 350 cnv 19 100 265 empty empty empty 20 12 0 12 #c6ffc7 #404040 0;
#X obj 1137 350 cnv 19 100 265 empty empty empty 20 12 0 12 #c6ffc7 #404040 0;
#X obj 196 423 vsl 19 162 0 1 0 0 empty empty empty 0 -9 0 12 #00ff04 #000000 #000000 0 1;
#X obj 196 376 / 127;
#X floatatom 196 400 5 0 0 0 - - - 0;
#X obj 304 423 vsl 19 162 0 1 0 0 empty empty empty 0 -9 0 12 #00ff04 #000000 #000000 0 1;
#X obj 304 376 / 127;
#X floatatom 304 400 5 0 0 0 - - - 0;
#X obj 408 423 vsl 19 162 0 1 0 0 empty empty empty 0 -9 0 12 #00ff04 #000000 #000000 0 1;
#X obj 408 376 / 127;
#X floatatom 408 400 5 0 0 0 - - - 0;
#X obj 511 423 vsl 19 162 0 1 0 0 empty empty empty 0 -9 0 12 #00ff04 #000000 #000000 0 1;
#X obj 511 376 / 127;
#X floatatom 511 400 5 0 0 0 - - - 0;
#X obj 616 424 vsl 19 162 0 1 0 0 empty empty empty 0 -9 0 12 #00ff04 #000000 #000000 0 1;
#X obj 616 377 / 127;
#X floatatom 616 401 5 0 0 0 - - - 0;
#X obj 724 425 vsl 19 162 0 1 0 0 empty empty empty 0 -9 0 12 #00ff04 #000000 #000000 0 1;
#X obj 724 378 / 127;
#X floatatom 724 402 5 0 0 0 - - - 0;
#X obj 828 425 vsl 19 162 0 1 0 0 empty empty empty 0 -9 0 12 #00ff04 #000000 #000000 0 1;
#X obj 828 378 / 127;
#X floatatom 828 402 5 0 0 0 - - - 0;
#X obj 937 423 vsl 19 162 0 1 0 0 empty empty empty 0 -9 0 12 #00ff04 #000000 #000000 0 1;
#X obj 937 376 / 127;
#X floatatom 937 400 5 0 0 0 - - - 0;
#X obj 1044 422 vsl 19 162 0 1 0 0 empty empty empty 0 -9 0 12 #00ff04 #000000 #000000 0 1;
#X obj 1043 376 / 127;
#X floatatom 1043 400 5 0 0 0 - - - 0;
#X obj 1150 423 vsl 19 162 0 1 0 0 empty empty empty 0 -9 0 12 #00ff04 #000000 #000000 0 1;
#X obj 1149 377 / 127;
#X floatatom 1150 400 5 0 0 0 - - - 0;
#X obj 196 353 ctlin 29 10;
#X obj 304 353 ctlin 48 10;
#X obj 408 353 ctlin 51 10;
#X obj 511 353 ctlin 54 10;
#X obj 616 354 ctlin 57 10;
#X obj 724 355 ctlin 60 10;
#X obj 828 355 ctlin 63 10;
#X obj 937 354 ctlin 82 10;
#X obj 1042 354 ctlin 85 10;
#X obj 1149 356 ctlin 88 10;
#X obj 196 592 s sn-v;
#X obj 304 592 s lt-v;
#X obj 408 592 s mt-v;
#X obj 511 592 s ht-v;
#X obj 616 594 s rs-v;
#X obj 724 595 s hc-v;
#X obj 828 595 s ch-v;
#X obj 937 593 s oh-v;
#X obj 1044 592 s cc-v;
#X obj 1150 593 s rc-v;
#X obj 42 115 cnv 19 120 220 empty empty empty 20 12 0 12 #c6ffc7 #404040 0;
#X obj 168 116 cnv 19 120 220 empty empty empty 20 12 0 12 #c6ffc7 #404040 0;
#X obj 294 116 cnv 19 100 220 empty empty empty 20 12 0 12 #c6ffc7 #404040 0;
#X obj 398 116 cnv 19 100 220 empty empty empty 20 12 0 12 #c6ffc7 #404040 0;
#X obj 504 116 cnv 19 100 220 empty empty empty 20 12 0 12 #c6ffc7 #404040 0;
#X obj 610 116 cnv 19 100 220 empty empty empty 20 12 0 12 #c6ffc7 #404040 0;
#X obj 717 117 cnv 19 100 220 empty empty empty 20 12 0 12 #c6ffc7 #404040 0;
#X obj 109 155 / 127;
#X floatatom 110 179 5 0 0 0 - - - 0;
#X obj 110 119 ctlin 21 10, f 5;
#X obj 50 156 / 127;
#X floatatom 50 179 5 0 0 0 - - - 0;
#X obj 50 265 / 127;
#X floatatom 50 288 5 0 0 0 - - - 0;
#X obj 107 266 / 127;
#X floatatom 107 288 5 0 0 0 - - - 0;
#X obj 50 119 ctlin 20 10, f 5;
#X obj 50 228 ctlin 22 10, f 5;
#X obj 107 229 ctlin 23 10, f 5;
#X obj 50 204 s bd-t;
#X obj 110 204 s bd-a;
#X obj 50 313 s bd-c;
#X obj 107 313 s bd-d;
#X obj 823 117 cnv 19 100 220 empty empty empty 20 12 0 12 #c6ffc7 #404040 0;
#X obj 928 117 cnv 19 100 220 empty empty empty 20 12 0 12 #c6ffc7 #404040 0;
#X obj 1033 117 cnv 19 100 220 empty empty empty 20 12 0 12 #c6ffc7 #404040 0;
#X obj 1139 118 cnv 19 100 220 empty empty empty 20 12 0 12 #c6ffc7 #404040 0;
#X obj 238 157 / 127;
#X floatatom 238 180 5 0 0 0 - - - 0;
#X obj 178 157 / 127;
#X floatatom 178 180 5 0 0 0 - - - 0;
#X obj 178 267 / 127;
#X floatatom 178 290 5 0 0 0 - - - 0;
#X obj 235 268 / 127;
#X floatatom 235 290 5 0 0 0 - - - 0;
#X obj 178 205 s sn-t;
#X obj 238 205 s sn-a;
#X obj 178 315 s sn-c;
#X obj 235 315 s sn-d;
#X obj 178 120 ctlin 25 10, f 5;
#X obj 238 120 ctlin 26 10, f 5;
#X obj 178 230 ctlin 27 10, f 5;
#X obj 235 231 ctlin 28 10, f 5;
#X obj 318 157 / 127;
#X floatatom 318 180 5 0 0 0 - - - 0;
#X obj 318 265 / 127;
#X floatatom 318 288 5 0 0 0 - - - 0;
#X obj 318 120 ctlin 46 10, f 5;
#X obj 318 228 ctlin 47 10, f 5;
#X obj 318 205 s lt-t;
#X obj 318 313 s lt-d;
#X obj 425 157 / 127;
#X floatatom 425 180 5 0 0 0 - - - 0;
#X obj 425 266 / 127;
#X floatatom 425 288 5 0 0 0 - - - 0;
#X obj 634 157 / 127;
#X floatatom 634 180 5 0 0 0 - - - 0;
#X obj 525 157 / 127;
#X floatatom 525 180 5 0 0 0 - - - 0;
#X obj 526 266 / 127;
#X floatatom 526 289 5 0 0 0 - - - 0;
#X obj 633 268 / 127;
#X floatatom 633 290 5 0 0 0 - - - 0;
#X obj 742 160 / 127;
#X floatatom 742 183 5 0 0 0 - - - 0;
#X obj 742 269 / 127;
#X floatatom 742 292 5 0 0 0 - - - 0;
#X obj 956 159 / 127;
#X floatatom 956 182 5 0 0 0 - - - 0;
#X obj 851 158 / 127;
#X floatatom 851 181 5 0 0 0 - - - 0;
#X obj 851 266 / 127;
#X floatatom 851 289 5 0 0 0 - - - 0;
#X obj 957 268 / 127;
#X floatatom 957 290 5 0 0 0 - - - 0;
#X obj 1063 160 / 127;
#X floatatom 1063 183 5 0 0 0 - - - 0;
#X obj 1064 268 / 127;
#X floatatom 1064 290 5 0 0 0 - - - 0;
#X obj 1170 160 / 127;
#X floatatom 1170 183 5 0 0 0 - - - 0;
#X obj 1170 270 / 127;
#X floatatom 1170 293 5 0 0 0 - - - 0;
#X obj 425 313 s mt-d;
#X obj 425 205 s mt-d;
#X obj 525 205 s ht-t;
#X obj 526 314 s ht-d;
#X obj 634 205 s rs-t;
#X obj 633 313 s rs-d;
#X obj 742 208 s hc-t;
#X obj 742 316 s hc-d;
#X obj 851 314 s ch-d;
#X obj 851 206 s ch-t;
#X obj 956 207 s oh-t;
#X obj 957 313 s oh-d;
#X obj 1063 208 s cc-t;
#X obj 1064 315 s cc-d;
#X obj 1170 208 s rc-t;
#X obj 1170 318 s rc-d;
#X obj 425 120 ctlin 49 10, f 5;
#X obj 425 229 ctlin 50 10, f 5;
#X obj 525 120 ctlin 52 10, f 5;
#X obj 526 229 ctlin 53 10, f 5;
#X obj 634 120 ctlin 55 10, f 5;
#X obj 633 231 ctlin 56 10, f 5;
#X obj 742 123 ctlin 58 10, f 5;
#X obj 742 232 ctlin 59 10, f 5;
#X obj 851 121 ctlin 61 10, f 5;
#X obj 851 229 ctlin 62 10, f 5;
#X obj 956 122 ctlin 80 10, f 5;
#X obj 957 231 ctlin 81 10, f 5;
#X obj 1063 123 ctlin 83 10, f 5;
#X obj 1064 231 ctlin 84 10, f 5;
#X obj 1170 123 ctlin 86 10, f 5;
#X obj 1170 233 ctlin 87 10, f 5;
#X obj 39 628 cnv 19 120 120 empty empty empty 20 12 0 12 #c6ffc7 #404040 0;
#X obj 166 628 cnv 19 120 120 empty empty empty 20 12 0 12 #c6ffc7 #404040 0;
#X obj 291 628 cnv 19 100 120 empty empty empty 20 12 0 12 #c6ffc7 #404040 0;
#X obj 397 628 cnv 19 100 120 empty empty empty 20 12 0 12 #c6ffc7 #404040 0;
#X obj 502 629 cnv 19 100 120 empty empty empty 20 12 0 12 #c6ffc7 #404040 0;
#X obj 608 630 cnv 19 100 120 empty empty empty 20 12 0 12 #c6ffc7 #404040 0;
#X obj 715 630 cnv 19 100 120 empty empty empty 20 12 0 12 #c6ffc7 #404040 0;
#X obj 821 630 cnv 19 100 120 empty empty empty 20 12 0 12 #c6ffc7 #404040 0;
#X obj 927 630 cnv 19 100 120 empty empty empty 20 12 0 12 #c6ffc7 #404040 0;
#X obj 1034 630 cnv 19 100 120 empty empty empty 20 12 0 12 #c6ffc7 #404040 0;
#X obj 1140 630 cnv 19 100 120 empty empty empty 20 12 0 12 #c6ffc7 #404040 0;
#X obj 74 652 notein;
#X obj 74 675 sel 36;
#X obj 74 697 bng 19 250 50 0 empty empty empty 0 -10 0 12 #fcfcfc #000000 #000000;
#X obj 202 653 notein;
#X obj 202 699 bng 19 250 50 0 empty empty empty 0 -10 0 12 #fcfcfc #000000 #000000;
#X obj 322 653 notein;
#X obj 322 700 bng 19 250 50 0 empty empty empty 0 -10 0 12 #fcfcfc #000000 #000000;
#X obj 424 654 notein;
#X obj 424 700 bng 19 250 50 0 empty empty empty 0 -10 0 12 #fcfcfc #000000 #000000;
#X obj 536 655 notein;
#X obj 536 702 bng 19 250 50 0 empty empty empty 0 -10 0 12 #fcfcfc #000000 #000000;
#X obj 641 652 notein;
#X obj 641 700 bng 19 250 50 0 empty empty empty 0 -10 0 12 #fcfcfc #000000 #000000;
#X obj 746 654 notein;
#X obj 746 699 bng 19 250 50 0 empty empty empty 0 -10 0 12 #fcfcfc #000000 #000000;
#X obj 852 653 notein;
#X obj 852 700 bng 19 250 50 0 empty empty empty 0 -10 0 12 #fcfcfc #000000 #000000;
#X obj 954 652 notein;
#X obj 954 699 bng 19 250 50 0 empty empty empty 0 -10 0 12 #fcfcfc #000000 #000000;
#X obj 1058 651 notein;
#X obj 1058 701 bng 19 250 50 0 empty empty empty 0 -10 0 12 #fcfcfc #000000 #000000;
#X obj 1169 652 notein;
#X obj 1169 697 bng 19 250 50 0 empty empty empty 0 -10 0 12 #fcfcfc #000000 #000000;
#X obj 202 677 sel 38;
#X obj 1058 675 sel 49;
#X obj 1169 675 sel 51;
#X obj 322 677 sel 43;
#X obj 424 678 sel 47;
#X obj 536 679 sel 50;
#X obj 641 676 sel 37;
#X obj 746 678 sel 39;
#X obj 852 677 sel 42;
#X obj 954 675 sel 46;
#X obj 74 719 s bd;
#X obj 202 721 s sn;
#X text 331 633 LT;
#X text 435 632 MT;
#X text 540 634 HT;
#X text 85 631 BD;
#X text 213 632 SD;
#X text 641 634 RS;
#X text 744 634 HC;
#X text 852 635 CH;
#X text 953 633 OH;
#X text 1066 630 CC;
#X text 1170 633 RC;
#X obj 1169 722 s rc;
#X obj 1058 727 s cc;
#X obj 954 722 s oh;
#X obj 852 722 s ch;
#X obj 746 722 s hc;
#X obj 641 722 s rs;
#X obj 536 724 s ht;
#X obj 424 723 s mt;
#X obj 322 723 s lt;
#X obj 43 10 cnv 19 140 90 empty empty empty 20 12 0 12 #c6ffc7 #404040 0;
#X obj 195 10 cnv 19 360 90 empty empty empty 20 12 0 12 #c6ffc7 #404040 0;
#X obj 567 10 cnv 19 360 90 empty empty empty 20 12 0 12 #c6ffc7 #404040 0;
#X obj 937 10 cnv 19 300 90 empty empty empty 20 12 0 12 #c6ffc7 #404040 0;
#X obj 63 20 ctlin 71 10;
#X obj 63 44 / 127;
#X floatatom 63 68 5 0 0 0 - - - 0;
#X obj 111 69 s acc-l;
#X obj 207 22 ctlin 91 10;
#X obj 327 23 ctlin 89 10;
#X obj 443 20 ctlin 90 10;
#X obj 207 47 / 127;
#X floatatom 207 71 5 0 0 0 - - - 0;
#X obj 327 47 / 127;
#X floatatom 327 71 5 0 0 0 - - - 0;
#X obj 443 48 / 127;
#X floatatom 443 72 5 0 0 0 - - - 0;
#X obj 249 71 s rev-l;
#X obj 367 71 s rev-t;
#X obj 485 72 s rev-g;
#X obj 583 22 ctlin 91 10;
#X obj 702 23 ctlin 89 10;
#X obj 819 22 ctlin 90 10;
#X obj 583 46 / 127;
#X floatatom 583 70 5 0 0 0 - - - 0;
#X obj 702 45 / 127;
#X floatatom 702 69 5 0 0 0 - - - 0;
#X obj 819 45 / 127;
#X floatatom 819 69 5 0 0 0 - - - 0;
#X obj 625 69 s del-l;
#X obj 743 69 s del-t;
#X obj 862 70 s del-f;
#X obj 968 22 ctlin 91 10;
#X obj 1099 22 ctlin 89 10;
#X obj 968 46 / 127;
#X floatatom 968 70 5 0 0 0 - - - 0;
#X obj 1099 46 / 127;
#X floatatom 1099 70 5 0 0 0 - - - 0;
#X obj 1010 69 s ext-l;
#X obj 1142 70 s ext-s;
#X connect 5 0 7 0;
#X connect 6 0 9 0;
#X connect 7 0 8 0;
#X connect 8 0 6 0;
#X connect 20 0 60 0;
#X connect 21 0 22 0;
#X connect 22 0 20 0;
#X connect 23 0 61 0;
#X connect 24 0 25 0;
#X connect 25 0 23 0;
#X connect 26 0 62 0;
#X connect 27 0 28 0;
#X connect 28 0 26 0;
#X connect 29 0 63 0;
#X connect 30 0 31 0;
#X connect 31 0 29 0;
#X connect 32 0 64 0;
#X connect 33 0 34 0;
#X connect 34 0 32 0;
#X connect 35 0 65 0;
#X connect 36 0 37 0;
#X connect 37 0 35 0;
#X connect 38 0 66 0;
#X connect 39 0 40 0;
#X connect 40 0 38 0;
#X connect 41 0 67 0;
#X connect 42 0 43 0;
#X connect 43 0 41 0;
#X connect 44 0 68 0;
#X connect 45 0 46 0;
#X connect 46 0 44 0;
#X connect 47 0 69 0;
#X connect 48 0 49 0;
#X connect 49 0 47 0;
#X connect 50 0 21 0;
#X connect 51 0 24 0;
#X connect 52 0 27 0;
#X connect 53 0 30 0;
#X connect 54 0 33 0;
#X connect 55 0 36 0;
#X connect 56 0 39 0;
#X connect 57 0 42 0;
#X connect 58 0 45 0;
#X connect 59 0 48 0;
#X connect 77 0 78 0;
#X connect 78 0 90 0;
#X connect 79 0 77 0;
#X connect 80 0 81 0;
#X connect 81 0 89 0;
#X connect 82 0 83 0;
#X connect 83 0 91 0;
#X connect 84 0 85 0;
#X connect 85 0 92 0;
#X connect 86 0 80 0;
#X connect 87 0 82 0;
#X connect 88 0 84 0;
#X connect 97 0 98 0;
#X connect 98 0 106 0;
#X connect 99 0 100 0;
#X connect 100 0 105 0;
#X connect 101 0 102 0;
#X connect 102 0 107 0;
#X connect 103 0 104 0;
#X connect 104 0 108 0;
#X connect 109 0 99 0;
#X connect 110 0 97 0;
#X connect 111 0 101 0;
#X connect 112 0 103 0;
#X connect 113 0 114 0;
#X connect 114 0 119 0;
#X connect 115 0 116 0;
#X connect 116 0 120 0;
#X connect 117 0 113 0;
#X connect 118 0 115 0;
#X connect 121 0 122 0;
#X connect 122 0 154 0;
#X connect 123 0 124 0;
#X connect 124 0 153 0;
#X connect 125 0 126 0;
#X connect 126 0 157 0;
#X connect 127 0 128 0;
#X connect 128 0 155 0;
#X connect 129 0 130 0;
#X connect 130 0 156 0;
#X connect 131 0 132 0;
#X connect 132 0 158 0;
#X connect 133 0 134 0;
#X connect 134 0 159 0;
#X connect 135 0 136 0;
#X connect 136 0 160 0;
#X connect 137 0 138 0;
#X connect 138 0 163 0;
#X connect 139 0 140 0;
#X connect 140 0 162 0;
#X connect 141 0 142 0;
#X connect 142 0 161 0;
#X connect 143 0 144 0;
#X connect 144 0 164 0;
#X connect 145 0 146 0;
#X connect 146 0 165 0;
#X connect 147 0 148 0;
#X connect 148 0 166 0;
#X connect 149 0 150 0;
#X connect 150 0 167 0;
#X connect 151 0 152 0;
#X connect 152 0 168 0;
#X connect 169 0 121 0;
#X connect 170 0 123 0;
#X connect 171 0 127 0;
#X connect 172 0 129 0;
#X connect 173 0 125 0;
#X connect 174 0 131 0;
#X connect 175 0 133 0;
#X connect 176 0 135 0;
#X connect 177 0 139 0;
#X connect 178 0 141 0;
#X connect 179 0 137 0;
#X connect 180 0 143 0;
#X connect 181 0 145 0;
#X connect 182 0 147 0;
#X connect 183 0 149 0;
#X connect 184 0 151 0;
#X connect 196 0 197 0;
#X connect 197 0 198 0;
#X connect 198 0 229 0;
#X connect 199 0 219 0;
#X connect 200 0 230 0;
#X connect 201 0 222 0;
#X connect 202 0 250 0;
#X connect 203 0 223 0;
#X connect 204 0 249 0;
#X connect 205 0 224 0;
#X connect 206 0 248 0;
#X connect 207 0 225 0;
#X connect 208 0 247 0;
#X connect 209 0 226 0;
#X connect 210 0 246 0;
#X connect 211 0 227 0;
#X connect 212 0 245 0;
#X connect 213 0 228 0;
#X connect 214 0 244 0;
#X connect 215 0 220 0;
#X connect 216 0 243 0;
#X connect 217 0 221 0;
#X connect 218 0 242 0;
#X connect 219 0 200 0;
#X connect 220 0 216 0;
#X connect 221 0 218 0;
#X connect 222 0 202 0;
#X connect 223 0 204 0;
#X connect 224 0 206 0;
#X connect 225 0 208 0;
#X connect 226 0 210 0;
#X connect 227 0 212 0;
#X connect 228 0 214 0;
#X connect 255 0 256 0;
#X connect 256 0 257 0;
#X connect 257 0 258 0;
#X connect 259 0 262 0;
#X connect 260 0 264 0;
#X connect 261 0 266 0;
#X connect 262 0 263 0;
#X connect 263 0 268 0;
#X connect 264 0 265 0;
#X connect 265 0 269 0;
#X connect 266 0 267 0;
#X connect 267 0 270 0;
#X connect 271 0 274 0;
#X connect 272 0 276 0;
#X connect 273 0 278 0;
#X connect 274 0 275 0;
#X connect 275 0 280 0;
#X connect 276 0 277 0;
#X connect 277 0 281 0;
#X connect 278 0 279 0;
#X connect 279 0 282 0;
#X connect 283 0 285 0;
#X connect 284 0 287 0;
#X connect 285 0 286 0;
#X connect 286 0 289 0;
#X connect 287 0 288 0;
#X connect 288 0 290 0;
