#N canvas 0 25 1440 776 12;
#X obj 698 65 / 127;
#X floatatom 698 90 5 0 0 0 - - - 0;
#X floatatom 699 152 5 0 0 0 - - - 0;
#X floatatom 223 357 5 0 0 0 - - - 0;
#X floatatom 100 347 5 0 0 0 - - - 0;
#X obj 101 312 expr $f1<1;
#X floatatom 296 357 5 0 0 0 - - - 0;
#X obj 223 381 sel 1;
#X obj 296 381 sel 1;
#X obj 223 403 bng 19 250 50 0 empty empty empty 0 -10 0 12 #fcfcfc #000000 #000000;
#X obj 296 402 bng 19 250 50 0 empty empty empty 0 -10 0 12 #fcfcfc #000000 #000000;
#X obj 258 459 +;
#X floatatom 258 485 5 0 0 0 - - - 0;
#X msg 224 430 1;
#X msg 295 430 1;
#X obj 252 280 t b f;
#X msg 256 429 0;
#X msg 327 430 0;
#X obj 259 517 sel 2;
#X obj 259 543 bng 19 250 50 0 empty empty empty 0 -10 0 12 #fcfcfc #000000 #000000;
#X obj 100 374 sel 1;
#X obj 94 541 bng 19 250 50 0 empty empty empty 0 -10 0 12 #fcfcfc #000000 #000000;
#X msg 515 853 1 0 0;
#X msg 568 853 0 1 0;
#X floatatom 405 342 5 0 0 0 - - - 0;
#X floatatom 478 342 5 0 0 0 - - - 0;
#X obj 405 366 sel 1;
#X obj 478 366 sel 1;
#X obj 405 388 bng 19 250 50 0 empty empty empty 0 -10 0 12 #fcfcfc #000000 #000000;
#X obj 478 387 bng 19 250 50 0 empty empty empty 0 -10 0 12 #fcfcfc #000000 #000000;
#X obj 440 444 +;
#X floatatom 440 470 5 0 0 0 - - - 0;
#X msg 406 415 1;
#X msg 477 415 1;
#X obj 434 265 t b f;
#X msg 438 414 0;
#X msg 509 415 0;
#X obj 441 507 sel 2;
#X obj 441 546 bng 19 250 50 0 empty empty empty 0 -10 0 12 #fcfcfc #000000 #000000;
#X floatatom 574 343 5 0 0 0 - - - 0;
#X floatatom 647 343 5 0 0 0 - - - 0;
#X obj 574 367 sel 1;
#X obj 647 367 sel 1;
#X obj 574 389 bng 19 250 50 0 empty empty empty 0 -10 0 12 #fcfcfc #000000 #000000;
#X obj 647 388 bng 19 250 50 0 empty empty empty 0 -10 0 12 #fcfcfc #000000 #000000;
#X obj 609 445 +;
#X floatatom 609 471 5 0 0 0 - - - 0;
#X msg 575 416 1;
#X msg 646 416 1;
#X obj 603 266 t b f;
#X msg 607 415 0;
#X msg 678 416 0;
#X obj 610 503 sel 2;
#X obj 611 547 bng 19 250 50 0 empty empty empty 0 -10 0 12 #fcfcfc #000000 #000000;
#X msg 622 853 0 0 1;
#X msg 967 925 0;
#X msg 1000 925 1;
#X msg 1034 925 2;
#X msg 1069 925 3;
#X obj 109 948 outlet col;
#X obj 1070 970 outlet rad;
#X floatatom 729 344 5 0 0 0 - - - 0;
#X floatatom 802 344 5 0 0 0 - - - 0;
#X obj 729 368 sel 1;
#X obj 802 368 sel 1;
#X obj 729 390 bng 19 250 50 0 empty empty empty 0 -10 0 12 #fcfcfc #000000 #000000;
#X obj 802 389 bng 19 250 50 0 empty empty empty 0 -10 0 12 #fcfcfc #000000 #000000;
#X obj 764 446 +;
#X floatatom 764 472 5 0 0 0 - - - 0;
#X msg 730 417 1;
#X msg 801 417 1;
#X obj 758 267 t b f;
#X msg 762 416 0;
#X msg 833 417 0;
#X obj 765 504 sel 2;
#X floatatom 902 346 5 0 0 0 - - - 0;
#X floatatom 975 346 5 0 0 0 - - - 0;
#X obj 902 370 sel 1;
#X obj 975 370 sel 1;
#X obj 902 392 bng 19 250 50 0 empty empty empty 0 -10 0 12 #fcfcfc #000000 #000000;
#X obj 975 391 bng 19 250 50 0 empty empty empty 0 -10 0 12 #fcfcfc #000000 #000000;
#X obj 937 448 +;
#X floatatom 937 474 5 0 0 0 - - - 0;
#X msg 903 419 1;
#X msg 974 419 1;
#X obj 931 269 t b f;
#X msg 935 418 0;
#X msg 1006 419 0;
#X obj 938 506 sel 2;
#X floatatom 1071 347 5 0 0 0 - - - 0;
#X floatatom 1144 347 5 0 0 0 - - - 0;
#X obj 1071 371 sel 1;
#X obj 1144 371 sel 1;
#X obj 1071 393 bng 19 250 50 0 empty empty empty 0 -10 0 12 #fcfcfc #000000 #000000;
#X obj 1144 392 bng 19 250 50 0 empty empty empty 0 -10 0 12 #fcfcfc #000000 #000000;
#X obj 1106 449 +;
#X floatatom 1106 475 5 0 0 0 - - - 0;
#X msg 1072 420 1;
#X msg 1143 420 1;
#X obj 1100 270 t b f;
#X msg 1104 419 0;
#X msg 1175 420 0;
#X obj 1107 507 sel 2;
#X msg 1103 925 4;
#X msg 1136 925 5;
#X msg 1170 925 6;
#X msg 1205 925 7;
#X obj 765 546 bng 19 250 50 0 empty empty empty 0 -10 0 12 #fcfcfc #000000 #000000;
#X obj 938 545 bng 19 250 50 0 empty empty empty 0 -10 0 12 #fcfcfc #000000 #000000;
#X obj 1107 546 bng 19 250 50 0 empty empty empty 0 -10 0 12 #fcfcfc #000000 #000000;
#X msg 831 854 1 1 1;
#X msg 676 853 1 1 0;
#X msg 731 854 1 0 1;
#X msg 782 854 0 1 1;
#X obj 1452 288 t b f;
#X msg 885 855 0 0 0;
#X obj 241 316 expr $f1 > 1 \; $f1 < 2 \;;
#X obj 423 301 expr $f1 > 2 \; $f1 < 3 \;;
#X obj 592 302 expr $f1 > 3 \; $f1 < 4 \;;
#X obj 747 303 expr $f1 > 4 \; $f1 < 5 \;;
#X obj 920 305 expr $f1 > 5 \; $f1 < 6 \;;
#X obj 1089 306 expr $f1 > 7 \; $f1 < 8 \;;
#X msg 1454 416 1;
#X obj 698 41 ctlin 54 1;
#X floatatom 1459 669 5 0 0 0 - - - 0;
#X obj 1457 608 metro 500;
#X obj 1177 709 sel 1;
#X obj 1219 709 sel 2;
#X obj 1261 709 sel 3;
#X obj 1303 709 sel 4;
#X obj 1345 710 sel 5;
#X obj 1387 710 sel 6;
#X obj 1429 710 sel 7;
#X obj 1471 710 sel 8;
#X obj 1177 734 bng 19 250 50 0 empty empty empty 0 -10 0 12 #fcfcfc #000000 #000000;
#X obj 1219 734 bng 19 250 50 0 empty empty empty 0 -10 0 12 #fcfcfc #000000 #000000;
#X obj 1261 735 bng 19 250 50 0 empty empty empty 0 -10 0 12 #fcfcfc #000000 #000000;
#X obj 1303 735 bng 19 250 50 0 empty empty empty 0 -10 0 12 #fcfcfc #000000 #000000;
#X obj 1345 734 bng 19 250 50 0 empty empty empty 0 -10 0 12 #fcfcfc #000000 #000000;
#X obj 1387 734 bng 19 250 50 0 empty empty empty 0 -10 0 12 #fcfcfc #000000 #000000;
#X obj 1429 733 bng 19 250 50 0 empty empty empty 0 -10 0 12 #fcfcfc #000000 #000000;
#X obj 1471 733 bng 19 250 50 0 empty empty empty 0 -10 0 12 #fcfcfc #000000 #000000;
#X obj 1456 452 sel 1;
#X obj 1457 560 bng 19 250 50 0 empty empty empty 0 -10 0 12 #fcfcfc #000000 #000000;
#X msg 1368 592 0;
#X floatatom 1220 344 5 0 0 0 - - - 0;
#X floatatom 1293 344 5 0 0 0 - - - 0;
#X obj 1220 368 sel 1;
#X obj 1293 368 sel 1;
#X obj 1220 390 bng 19 250 50 0 empty empty empty 0 -10 0 12 #fcfcfc #000000 #000000;
#X obj 1293 389 bng 19 250 50 0 empty empty empty 0 -10 0 12 #fcfcfc #000000 #000000;
#X obj 1255 446 +;
#X floatatom 1255 472 5 0 0 0 - - - 0;
#X msg 1221 417 1;
#X msg 1292 417 1;
#X obj 1249 267 t b f;
#X msg 1253 416 0;
#X msg 1324 417 0;
#X obj 1256 504 sel 2;
#X obj 1256 543 bng 19 250 50 0 empty empty empty 0 -10 0 12 #fcfcfc #000000 #000000;
#X obj 1238 303 expr $f1 > 8 \; $f1 < 9 \;;
#X obj 1458 638 random 9;
#X obj 699 126 * 9;
#X obj 1451 322 sel 9;
#X connect 0 0 1 0;
#X connect 1 0 162 0;
#X connect 2 0 5 0;
#X connect 2 0 15 0;
#X connect 2 0 34 0;
#X connect 2 0 49 0;
#X connect 2 0 71 0;
#X connect 2 0 85 0;
#X connect 2 0 99 0;
#X connect 2 0 114 0;
#X connect 2 0 155 0;
#X connect 3 0 7 0;
#X connect 4 0 20 0;
#X connect 5 0 4 0;
#X connect 6 0 8 0;
#X connect 7 0 9 0;
#X connect 7 1 16 0;
#X connect 8 0 10 0;
#X connect 8 1 17 0;
#X connect 9 0 13 0;
#X connect 10 0 14 0;
#X connect 11 0 12 0;
#X connect 12 0 18 0;
#X connect 13 0 11 0;
#X connect 14 0 11 1;
#X connect 15 0 116 0;
#X connect 15 1 116 0;
#X connect 16 0 11 0;
#X connect 17 0 11 1;
#X connect 18 0 19 0;
#X connect 19 0 144 0;
#X connect 19 0 23 0;
#X connect 20 0 21 0;
#X connect 21 0 144 0;
#X connect 21 0 22 0;
#X connect 22 0 59 0;
#X connect 22 0 55 0;
#X connect 23 0 59 0;
#X connect 23 0 56 0;
#X connect 24 0 26 0;
#X connect 25 0 27 0;
#X connect 26 0 28 0;
#X connect 26 1 35 0;
#X connect 27 0 29 0;
#X connect 27 1 36 0;
#X connect 28 0 32 0;
#X connect 29 0 33 0;
#X connect 30 0 31 0;
#X connect 31 0 37 0;
#X connect 32 0 30 0;
#X connect 33 0 30 1;
#X connect 34 0 117 0;
#X connect 34 1 117 0;
#X connect 35 0 30 0;
#X connect 36 0 30 1;
#X connect 37 0 38 0;
#X connect 38 0 144 0;
#X connect 38 0 54 0;
#X connect 39 0 41 0;
#X connect 40 0 42 0;
#X connect 41 0 43 0;
#X connect 41 1 50 0;
#X connect 42 0 44 0;
#X connect 42 1 51 0;
#X connect 43 0 47 0;
#X connect 44 0 48 0;
#X connect 45 0 46 0;
#X connect 46 0 52 0;
#X connect 47 0 45 0;
#X connect 48 0 45 1;
#X connect 49 0 118 0;
#X connect 49 1 118 0;
#X connect 50 0 45 0;
#X connect 51 0 45 1;
#X connect 52 0 53 0;
#X connect 53 0 144 0;
#X connect 53 0 111 0;
#X connect 54 0 59 0;
#X connect 54 0 57 0;
#X connect 55 0 60 0;
#X connect 56 0 60 0;
#X connect 57 0 60 0;
#X connect 58 0 60 0;
#X connect 61 0 63 0;
#X connect 62 0 64 0;
#X connect 63 0 65 0;
#X connect 63 1 72 0;
#X connect 64 0 66 0;
#X connect 64 1 73 0;
#X connect 65 0 69 0;
#X connect 66 0 70 0;
#X connect 67 0 68 0;
#X connect 68 0 74 0;
#X connect 69 0 67 0;
#X connect 70 0 67 1;
#X connect 71 0 119 0;
#X connect 71 1 119 0;
#X connect 72 0 67 0;
#X connect 73 0 67 1;
#X connect 74 0 107 0;
#X connect 75 0 77 0;
#X connect 76 0 78 0;
#X connect 77 0 79 0;
#X connect 77 1 86 0;
#X connect 78 0 80 0;
#X connect 78 1 87 0;
#X connect 79 0 83 0;
#X connect 80 0 84 0;
#X connect 81 0 82 0;
#X connect 82 0 88 0;
#X connect 83 0 81 0;
#X connect 84 0 81 1;
#X connect 85 0 120 0;
#X connect 85 1 120 0;
#X connect 86 0 81 0;
#X connect 87 0 81 1;
#X connect 88 0 108 0;
#X connect 89 0 91 0;
#X connect 90 0 92 0;
#X connect 91 0 93 0;
#X connect 91 1 100 0;
#X connect 92 0 94 0;
#X connect 92 1 101 0;
#X connect 93 0 97 0;
#X connect 94 0 98 0;
#X connect 95 0 96 0;
#X connect 96 0 102 0;
#X connect 97 0 95 0;
#X connect 98 0 95 1;
#X connect 99 0 121 0;
#X connect 99 1 121 0;
#X connect 100 0 95 0;
#X connect 101 0 95 1;
#X connect 102 0 109 0;
#X connect 103 0 60 0;
#X connect 104 0 60 0;
#X connect 105 0 60 0;
#X connect 106 0 60 0;
#X connect 107 0 144 0;
#X connect 107 0 112 0;
#X connect 108 0 144 0;
#X connect 108 0 113 0;
#X connect 109 0 144 0;
#X connect 109 0 110 0;
#X connect 110 0 59 0;
#X connect 110 0 105 0;
#X connect 111 0 59 0;
#X connect 111 0 58 0;
#X connect 112 0 59 0;
#X connect 112 0 103 0;
#X connect 113 0 59 0;
#X connect 113 0 104 0;
#X connect 114 0 163 0;
#X connect 114 1 163 0;
#X connect 115 0 59 0;
#X connect 115 0 106 0;
#X connect 116 0 3 0;
#X connect 116 1 6 0;
#X connect 117 0 24 0;
#X connect 117 1 25 0;
#X connect 118 0 39 0;
#X connect 118 1 40 0;
#X connect 119 0 61 0;
#X connect 119 1 62 0;
#X connect 120 0 75 0;
#X connect 120 1 76 0;
#X connect 121 0 89 0;
#X connect 121 1 90 0;
#X connect 122 0 142 0;
#X connect 123 0 0 0;
#X connect 124 0 126 0;
#X connect 124 0 127 0;
#X connect 124 0 128 0;
#X connect 124 0 129 0;
#X connect 124 0 130 0;
#X connect 124 0 131 0;
#X connect 124 0 132 0;
#X connect 124 0 133 0;
#X connect 125 0 161 0;
#X connect 126 0 134 0;
#X connect 127 0 135 0;
#X connect 128 0 136 0;
#X connect 129 0 137 0;
#X connect 130 0 138 0;
#X connect 131 0 139 0;
#X connect 132 0 140 0;
#X connect 133 0 141 0;
#X connect 134 0 22 0;
#X connect 135 0 23 0;
#X connect 136 0 54 0;
#X connect 137 0 111 0;
#X connect 138 0 112 0;
#X connect 139 0 113 0;
#X connect 140 0 110 0;
#X connect 141 0 115 0;
#X connect 142 0 143 0;
#X connect 143 0 125 0;
#X connect 144 0 125 0;
#X connect 145 0 147 0;
#X connect 146 0 148 0;
#X connect 147 0 149 0;
#X connect 147 1 156 0;
#X connect 148 0 150 0;
#X connect 148 1 157 0;
#X connect 149 0 153 0;
#X connect 150 0 154 0;
#X connect 151 0 152 0;
#X connect 152 0 158 0;
#X connect 153 0 151 0;
#X connect 154 0 151 1;
#X connect 155 0 160 0;
#X connect 155 1 160 0;
#X connect 156 0 151 0;
#X connect 157 0 151 1;
#X connect 158 0 159 0;
#X connect 159 0 115 0;
#X connect 159 0 144 0;
#X connect 160 0 145 0;
#X connect 160 1 146 0;
#X connect 161 0 124 0;
#X connect 162 0 2 0;
#X connect 163 0 122 0;
