#N canvas 0 25 1440 776 12;
#X declare -lib Gem;
#X obj 47 16 declare -lib Gem;
#X obj 64 692 gemwin;
#X msg 47 271 create \, 1;
#X msg 147 272 0 \, destroy;
#X msg 251 616 dimen 640 480;
#X obj 251 594 loadbang;
#X msg 282 259 \; pd dsp \$1;
#X obj 282 217 tgl 19 0 empty empty empty 0 -10 0 12 #e3c6ff #000000 #000000 0 1;
#X obj 47 84 notein;
#X obj 449 448 world_light;
#X msg 541 422 1 1 0;
#X msg 357 449 lighting \$1;
#X obj 466 341 tgl 19 0 empty empty empty 0 -10 0 12 #ffe3c6 #000000 #000000 0 1;
#X obj 499 326 gemhead;
#X obj 499 353 rotateXYZ 0 -120 0;
#X floatatom 570 331 5 0 0 0 - - - 0;
#X msg 482 422 1 0 0;
#X obj 47 179 note-toggle;
#X obj 93 105 sel 1;
#X obj 47 157 spigot;
#X msg 59 131 1;
#X msg 90 131 0;
#X obj 47 105 == 91;
#X obj 47 220 tgl 19 0 empty empty empty 0 -10 0 12 #c6ffc7 #000000 #000000 0 1;
#X obj 282 180 note-toggle;
#X obj 328 106 sel 1;
#X obj 282 157 spigot;
#X msg 294 132 1;
#X msg 325 132 0;
#X obj 282 106 == 93;
#X obj 162 180 note-toggle;
#X obj 208 106 sel 1;
#X obj 162 158 spigot;
#X msg 174 132 1;
#X msg 205 132 0;
#X obj 162 106 == 92;
#X obj 515 244 sel 1;
#X obj 466 296 spigot;
#X msg 515 270 1;
#X msg 549 271 0;
#X obj 466 319 bng 19 250 50 0 empty empty empty 0 -10 0 12 #fcfcfc #000000 #000000;
#X obj 466 222 notein;
#X obj 466 244 sel 59;
#X obj 310 218 s size-dsp;
#X connect 2 0 1 0;
#X connect 3 0 1 0;
#X connect 4 0 1 0;
#X connect 5 0 4 0;
#X connect 7 0 6 0;
#X connect 8 0 22 0;
#X connect 8 0 35 0;
#X connect 8 0 29 0;
#X connect 8 2 18 0;
#X connect 8 2 31 0;
#X connect 8 2 25 0;
#X connect 10 0 9 1;
#X connect 11 0 1 0;
#X connect 12 0 9 0;
#X connect 12 0 11 0;
#X connect 13 0 14 0;
#X connect 14 0 9 0;
#X connect 15 0 14 2;
#X connect 16 0 9 1;
#X connect 17 0 23 0;
#X connect 18 0 20 0;
#X connect 18 1 21 0;
#X connect 19 0 17 0;
#X connect 20 0 19 1;
#X connect 21 0 19 1;
#X connect 22 0 19 0;
#X connect 23 0 2 0;
#X connect 24 0 7 0;
#X connect 24 0 43 0;
#X connect 25 0 27 0;
#X connect 25 1 28 0;
#X connect 26 0 24 0;
#X connect 27 0 26 1;
#X connect 28 0 26 1;
#X connect 29 0 26 0;
#X connect 30 0 3 0;
#X connect 31 0 33 0;
#X connect 31 1 34 0;
#X connect 32 0 30 0;
#X connect 33 0 32 1;
#X connect 34 0 32 1;
#X connect 35 0 32 0;
#X connect 36 0 38 0;
#X connect 36 1 39 0;
#X connect 37 0 40 0;
#X connect 38 0 37 1;
#X connect 39 0 37 1;
#X connect 40 0 12 0;
#X connect 41 0 42 0;
#X connect 41 2 36 0;
#X connect 42 0 37 0;
