#N canvas 119 154 450 300 12;
#X obj 71 89 spigot;
#X floatatom 71 67 5 0 0 0 - - - 0;
#X obj 71 111 bng 19 250 50 0 empty empty empty 0 -10 0 12 #fcfcfc #000000 #000000;
#X obj 71 134 tgl 19 0 empty empty empty 0 -10 0 12 #fcfcfc #000000 #000000 0 1;
#X obj 71 156 change;
#X obj 71 178 sel 1;
#X obj 70 200 f 0;
#X obj 115 201 == 0;
#X obj 71 39 inlet;
#X obj 70 231 outlet;
#X connect 0 0 2 0;
#X connect 1 0 0 0;
#X connect 1 0 0 1;
#X connect 2 0 3 0;
#X connect 3 0 4 0;
#X connect 4 0 5 0;
#X connect 5 0 6 0;
#X connect 6 0 7 0;
#X connect 6 0 9 0;
#X connect 7 0 6 1;
#X connect 8 0 1 0;
