#N canvas 1604 25 450 511 12;
#X obj 123 73 inlet;
#X obj 125 227 outlet;
#X obj 212 105 bng 19 250 50 0 empty empty empty 0 -10 0 12 #fcfcfc #000000 #000000;
#X obj 212 127 tgl 19 0 empty empty empty 0 -10 0 12 #fcfcfc #000000 #000000 0 1;
#X floatatom 125 204 5 0 0 0 - - - 0;
#X obj 125 180 updowncount2 0 720;
#X obj 125 154 metro 1;
#X obj 315 162 r spin1;
#X floatatom 315 187 5 0 0 0 - - - 0;
#X obj 315 215 * 500;
#X floatatom 301 344 5 0 0 0 - - - 0;
#X connect 0 0 2 0;
#X connect 0 0 6 0;
#X connect 2 0 3 0;
#X connect 3 0 6 0;
#X connect 4 0 1 0;
#X connect 5 0 4 0;
#X connect 6 0 5 0;
#X connect 7 0 8 0;
#X connect 8 0 9 0;
#X connect 9 0 10 0;
#X connect 10 0 6 1;
