#N canvas 0 27 1440 745 12;
#X obj 207 179 gemhead;
#X obj 207 155 tgl 19 0 empty empty empty 0 -10 0 12 #ffc7c6 #000000 #000000 0 1;
#X obj 205 305 part_head;
#X obj 265 1248 part_render;
#X obj 209 445 part_size 5;
#X msg 232 281 speed 5;
#X obj 419 194 env~;
#X obj 419 173 adc~;
#X floatatom 419 217 8 0 0 0 - - - 0;
#X obj 359 405 line;
#X obj 590 220 hsl 162 19 0.1 15 0 0 empty empty empty -2 -10 0 12 #c6ffc7 #000000 #000000 0 1;
#X obj 264 883 part_color;
#X obj 364 831 loadbang;
#X obj 388 1177 hsl 162 19 2 128 0 0 empty empty empty -2 -10 0 12 #c6ffc7 #000000 #000000 0 1;
#X floatatom 384 1199 5 1 100 0 - - - 0;
#X obj 205 696 part_source 20;
#X obj 266 1217 part_killold 100;
#X obj 300 672 pack f f f f;
#X floatatom 300 650 2 0 0 0 - - - 0;
#X obj 468 650 hsl 162 19 0.01 10 0 0 empty empty empty -2 -10 0 12 #c6ffc7 #000000 #000000 0 1;
#X floatatom 327 651 2 0 0 0 - - - 0;
#X floatatom 354 651 2 0 0 0 - - - 0;
#X obj 300 628 metro 100;
#X obj 299 606 tgl 19 0 empty empty empty 0 -10 0 12 #fcfcfc #000000 #000000 0 1;
#X floatatom 586 168 5 0 0 0 - - - 0;
#X floatatom 422 582 5 0 0 0 - - - 0;
#X floatatom 422 632 5 0 0 0 - - - 0;
#X obj 282 392 loadbang;
#X floatatom 385 1084 5 1 127 0 - - - 0;
#X floatatom 385 1155 5 0 0 0 - - - 0;
#X obj 385 1105 + 1;
#X obj 299 583 loadbang;
#X obj 385 1130 * 1;
#X obj 586 95 ctlin 16 1;
#X obj 422 557 ctlin 17 1;
#X obj 385 1059 ctlin 18 1;
#X obj 267 186 tgl 19 0 empty empty empty 0 -10 0 12 #feffc6 #000000 #000000 0 1;
#X obj 207 205 alpha;
#X floatatom 293 187 5 0 0 0 - - - 0;
#X msg 402 858 1 1 1;
#X msg 282 413 1;
#X obj 260 59 sel 1;
#X obj 207 109 spigot;
#X msg 253 86 1;
#X obj 207 132 bng 19 250 50 0 empty empty empty 0 -10 0 12 #fcfcfc #000000 #000000;
#X msg 287 86 0;
#X obj 208 59 sel 50;
#X obj 587 195 + 0.1;
#X obj 422 607 / 10;
#X msg 539 2370 draw line;
#X obj 563 2346 loadbang;
#X floatatom 300 1791 4 0 360 0 - - - 0;
#X floatatom 336 1790 4 0 360 0 - - - 0;
#X floatatom 258 1790 5 0 0 0 - - - 0;
#X msg 390 1771 0;
#X floatatom 1022 2359 5 0 0 0 - - - 0;
#X obj 935 2314 hradio 19 1 0 3 empty empty empty 0 -10 0 12 #fcfcfc #000000 #000000 0;
#X floatatom 936 2360 5 0 0 0 - - - 0;
#X obj 936 2336 + 1;
#X obj 260 1817 rotateXYZ;
#X obj 641 2148 scaleXYZ;
#X floatatom 678 2123 2 1 5 0 - - - 0;
#X floatatom 697 2122 5 -2 10 0 - - - 0;
#X floatatom 660 2123 2 1 5 0 - - - 0;
#X msg 892 2104 1;
#X obj 702 2098 hsl 162 19 -2 10 0 0 empty empty empty -2 -10 0 12 #c6ffc7 #000000 #000000 0 1;
#X obj 482 1648 tgl 19 0 empty empty empty 0 -10 0 12 #ffe3c6 #000000 #000000 0 1;
#X obj 289 1654 tgl 19 0 empty empty empty 0 -10 0 12 #ffe3c6 #000000 #000000 0 1;
#X obj 82 1656 tgl 19 0 empty empty empty 0 -10 0 12 #ffe3c6 #000000 #000000 0 1;
#X obj 181 1587 hsl 50 19 0 1 0 0 empty empty empty -2 -10 0 12 #fcfcfc #000000 #000000 0 1;
#X msg 936 2292 0;
#X obj 936 2271 loadbang;
#X floatatom 699 2026 5 1 127 0 - - - 0;
#X floatatom 699 2076 5 0 0 0 - - - 0;
#X obj 699 2051 / 12;
#X obj 699 2001 ctlin 19 1;
#X msg 413 2367 draw fill;
#X obj 81 1518 notein;
#X obj 81 1555 == 53;
#X obj 82 1633 note-toggle;
#X obj 288 1627 note-toggle;
#X obj 482 1622 note-toggle;
#X obj 127 1555 sel 1;
#X obj 81 1610 spigot;
#X msg 93 1581 1;
#X msg 124 1581 0;
#X obj 288 1511 notein;
#X obj 334 1548 sel 1;
#X obj 288 1603 spigot;
#X msg 300 1574 1;
#X msg 331 1574 0;
#X obj 482 1507 notein;
#X obj 528 1544 sel 1;
#X obj 482 1599 spigot;
#X msg 494 1570 1;
#X msg 525 1570 0;
#X obj 288 1548 == 54;
#X obj 482 1544 == 55;
#X obj 413 2174 notein;
#X obj 466 2203 sel 1;
#X obj 413 2253 spigot;
#X msg 466 2226 1;
#X msg 501 2227 0;
#X obj 413 2278 bng 19 250 50 0 empty empty empty 0 -10 0 12 #fcfcfc #000000 #000000;
#X obj 413 2203 sel 49;
#X obj 413 2300 tgl 19 0 empty empty empty 0 -10 0 12 #ffe3c6 #000000 #000000 0 1;
#X obj 538 2324 sel 0;
#X obj 413 2325 sel 1;
#X obj 413 2346 bng 19 250 50 0 empty empty empty 0 -10 0 12 #fcfcfc #000000 #000000;
#X obj 539 2345 bng 19 250 50 0 empty empty empty 0 -10 0 12 #fcfcfc #000000 #000000;
#X obj 178 1562 / 127;
#X obj 640 2395 sphere;
#X floatatom 1022 2288 5 0 0 0 - - - 0;
#X obj 1025 2334 hsl 162 19 3 38 0 0 empty empty empty -2 -10 0 12 #c6ffc7 #000000 #000000 0 1;
#X obj 1022 2264 / 3;
#X obj 1022 2310 + 0.5;
#X obj 1022 2239 ctlin 55 1;
#X obj 82 1680 metro 1;
#X floatatom 178 1612 5 0 0 0 - - - 0;
#X floatatom 178 1665 5 0 0 0 - - - 0;
#X obj 396 1586 hsl 50 19 0 1 0 0 empty empty empty -2 -10 0 12 #fcfcfc #000000 #000000 0 1;
#X obj 393 1561 / 127;
#X obj 289 1708 updowncount2 0 720;
#X obj 289 1682 metro 1;
#X floatatom 393 1611 5 0 0 0 - - - 0;
#X floatatom 393 1664 5 0 0 0 - - - 0;
#X obj 585 1585 hsl 50 19 0 1 0 0 empty empty empty -2 -10 0 12 #fcfcfc #000000 #000000 0 1;
#X obj 582 1560 / 127;
#X obj 483 1706 updowncount2 0 720;
#X obj 483 1680 metro 1;
#X floatatom 582 1610 5 0 0 0 - - - 0;
#X floatatom 582 1663 5 0 0 0 - - - 0;
#X obj 178 1640 * 150;
#X obj 393 1639 * 150;
#X obj 582 1638 * 150;
#X obj 676 1761 note-toggle;
#X obj 677 1635 notein;
#X obj 677 1657 == 52;
#X obj 676 1785 bng 19 250 50 0 empty empty empty 0 -10 0 12 #ffe3c6 #000000 #000000;
#X obj 720 1659 sel 1;
#X msg 686 1685 1;
#X msg 717 1685 0;
#X obj 678 1723 spigot;
#X obj 83 1722 updowncount2 0 720;
#X obj 285 2174 notein;
#X obj 338 2203 sel 1;
#X obj 285 2253 spigot;
#X msg 338 2226 1;
#X msg 373 2227 0;
#X obj 285 2278 bng 19 250 50 0 empty empty empty 0 -10 0 12 #fcfcfc #000000 #000000;
#X obj 285 2300 tgl 19 0 empty empty empty 0 -10 0 12 #ffe3c6 #000000 #000000 0 1;
#X obj 285 2325 sel 1;
#X obj 285 2346 bng 19 250 50 0 empty empty empty 0 -10 0 12 #fcfcfc #000000 #000000;
#X msg 285 2367 draw point;
#X obj 285 2203 sel 48;
#X obj 208 33 notein;
#X obj 586 120 / 127;
#X obj 586 141 * 14;
#X floatatom 419 259 5 0 0 0 - - - 0;
#X obj 361 328 +;
#X floatatom 361 354 5 0 0 0 - - - 0;
#X obj 419 237 * 0.01;
#X msg 359 382 \$1 10;
#X obj 495 185 tgl 19 0 empty empty empty 0 -10 0 12 #ffe3c6 #000000 #000000 0 1;
#X floatatom 475 273 5 0 0 0 - - - 0;
#X obj 494 209 moses 1;
#X floatatom 518 273 5 0 0 0 - - - 0;
#X obj 496 162 r size-dsp;
#X floatatom 855 1657 5 0 0 0 - - - 0;
#X floatatom 911 1663 5 0 0 0 - - - 0;
#X obj 846 1603 ctlin;
#X obj 178 1541 ctlin 20 1;
#X obj 393 1540 ctlin 21 1;
#X obj 582 1539 ctlin 22 1;
#X msg 332 857 1 1 0;
#X obj 350 748 colour-selector;
#X obj 471 776 hradio 19 1 0 8 empty empty empty 0 -10 0 12 #00ff04 #000000 #000000 0;
#X connect 0 0 37 0;
#X connect 1 0 0 0;
#X connect 2 0 4 0;
#X connect 3 0 59 0;
#X connect 4 0 15 0;
#X connect 5 0 2 0;
#X connect 6 0 8 0;
#X connect 7 0 6 0;
#X connect 8 0 161 0;
#X connect 9 0 4 1;
#X connect 10 0 164 0;
#X connect 10 0 166 0;
#X connect 11 0 16 0;
#X connect 12 0 39 0;
#X connect 12 0 174 0;
#X connect 13 0 14 0;
#X connect 14 0 16 1;
#X connect 15 0 11 0;
#X connect 16 0 3 0;
#X connect 17 0 15 3;
#X connect 18 0 17 0;
#X connect 20 0 17 1;
#X connect 21 0 17 2;
#X connect 22 0 17 0;
#X connect 23 0 22 0;
#X connect 24 0 47 0;
#X connect 25 0 48 0;
#X connect 26 0 17 3;
#X connect 26 0 19 0;
#X connect 27 0 40 0;
#X connect 28 0 30 0;
#X connect 29 0 13 0;
#X connect 30 0 32 0;
#X connect 31 0 23 0;
#X connect 32 0 29 0;
#X connect 33 0 156 0;
#X connect 34 0 25 0;
#X connect 35 0 28 0;
#X connect 36 0 37 0;
#X connect 37 0 2 0;
#X connect 38 0 37 1;
#X connect 39 0 11 2;
#X connect 40 0 4 1;
#X connect 41 0 43 0;
#X connect 41 1 45 0;
#X connect 42 0 44 0;
#X connect 43 0 42 1;
#X connect 44 0 1 0;
#X connect 45 0 42 1;
#X connect 46 0 42 0;
#X connect 47 0 10 0;
#X connect 48 0 26 0;
#X connect 49 0 111 0;
#X connect 50 0 49 0;
#X connect 51 0 59 2;
#X connect 52 0 59 3;
#X connect 53 0 59 1;
#X connect 54 0 51 0;
#X connect 54 0 52 0;
#X connect 54 0 53 0;
#X connect 55 0 111 2;
#X connect 56 0 58 0;
#X connect 57 0 111 1;
#X connect 58 0 57 0;
#X connect 59 0 60 0;
#X connect 60 0 111 0;
#X connect 61 0 60 2;
#X connect 62 0 60 3;
#X connect 63 0 60 1;
#X connect 64 0 63 0;
#X connect 64 0 61 0;
#X connect 64 0 62 0;
#X connect 65 0 62 0;
#X connect 66 0 129 0;
#X connect 67 0 123 0;
#X connect 68 0 117 0;
#X connect 69 0 118 0;
#X connect 70 0 56 0;
#X connect 71 0 70 0;
#X connect 72 0 74 0;
#X connect 73 0 65 0;
#X connect 74 0 73 0;
#X connect 75 0 72 0;
#X connect 76 0 111 0;
#X connect 77 0 78 0;
#X connect 77 2 82 0;
#X connect 78 0 83 0;
#X connect 79 0 68 0;
#X connect 80 0 67 0;
#X connect 81 0 66 0;
#X connect 82 0 84 0;
#X connect 82 1 85 0;
#X connect 83 0 79 0;
#X connect 84 0 83 1;
#X connect 85 0 83 1;
#X connect 86 0 96 0;
#X connect 86 2 87 0;
#X connect 87 0 89 0;
#X connect 87 1 90 0;
#X connect 88 0 80 0;
#X connect 89 0 88 1;
#X connect 90 0 88 1;
#X connect 91 0 97 0;
#X connect 91 2 92 0;
#X connect 92 0 94 0;
#X connect 92 1 95 0;
#X connect 93 0 81 0;
#X connect 94 0 93 1;
#X connect 95 0 93 1;
#X connect 96 0 88 0;
#X connect 97 0 93 0;
#X connect 98 0 104 0;
#X connect 98 2 99 0;
#X connect 99 0 101 0;
#X connect 99 1 102 0;
#X connect 100 0 103 0;
#X connect 101 0 100 1;
#X connect 102 0 100 1;
#X connect 103 0 105 0;
#X connect 104 0 100 0;
#X connect 105 0 106 0;
#X connect 105 0 107 0;
#X connect 106 0 109 0;
#X connect 107 0 108 0;
#X connect 108 0 76 0;
#X connect 109 0 49 0;
#X connect 110 0 69 0;
#X connect 112 0 115 0;
#X connect 113 0 55 0;
#X connect 114 0 112 0;
#X connect 115 0 113 0;
#X connect 116 0 114 0;
#X connect 117 0 143 0;
#X connect 118 0 132 0;
#X connect 119 0 117 1;
#X connect 120 0 124 0;
#X connect 121 0 120 0;
#X connect 122 0 51 0;
#X connect 123 0 122 0;
#X connect 124 0 133 0;
#X connect 125 0 123 1;
#X connect 126 0 130 0;
#X connect 127 0 126 0;
#X connect 128 0 52 0;
#X connect 129 0 128 0;
#X connect 130 0 134 0;
#X connect 131 0 129 1;
#X connect 132 0 119 0;
#X connect 133 0 125 0;
#X connect 134 0 131 0;
#X connect 135 0 138 0;
#X connect 136 0 137 0;
#X connect 136 2 139 0;
#X connect 137 0 142 0;
#X connect 138 0 54 0;
#X connect 139 0 140 0;
#X connect 139 1 141 0;
#X connect 140 0 142 1;
#X connect 141 0 142 1;
#X connect 142 0 135 0;
#X connect 143 0 53 0;
#X connect 144 0 154 0;
#X connect 144 2 145 0;
#X connect 145 0 147 0;
#X connect 145 1 148 0;
#X connect 146 0 149 0;
#X connect 147 0 146 1;
#X connect 148 0 146 1;
#X connect 149 0 150 0;
#X connect 150 0 151 0;
#X connect 150 0 106 0;
#X connect 151 0 152 0;
#X connect 152 0 153 0;
#X connect 153 0 111 0;
#X connect 154 0 146 0;
#X connect 155 0 46 0;
#X connect 155 2 41 0;
#X connect 156 0 157 0;
#X connect 157 0 24 0;
#X connect 158 0 159 0;
#X connect 159 0 160 0;
#X connect 160 0 162 0;
#X connect 161 0 158 0;
#X connect 162 0 9 0;
#X connect 163 0 165 0;
#X connect 164 0 159 0;
#X connect 165 0 164 0;
#X connect 165 1 166 0;
#X connect 166 0 159 1;
#X connect 167 0 163 0;
#X connect 170 1 168 0;
#X connect 170 2 169 0;
#X connect 171 0 110 0;
#X connect 172 0 121 0;
#X connect 173 0 127 0;
#X connect 174 0 11 1;
#X connect 175 0 11 1;
#X connect 175 1 176 0;
