#N canvas 0 25 1440 734 12;
#X obj 500 449 part_velocity;
#X obj 545 419 r domain;
#X obj 612 419 r arg;
#X obj 717 196 domains;
#X obj 717 146 hradio 40 1 0 6 empty empty empty 0 -10 0 12 #ffe3c6 #000000 #000000 0;
#X obj 501 225 gemhead;
#X obj 501 287 alpha;
#X obj 500 326 part_head;
#X obj 499 682 part_render;
#X obj 500 353 part_size 5;
#X obj 500 381 part_source 20;
#X obj 501 196 tgl 19 0 empty empty empty 0 -10 0 12 #ffc7c6 #000000 #000000 0 1;
#X obj 533 251 tgl 19 0 empty empty empty 0 -10 0 12 #feffc6 #000000 #000000 0 1;
#X obj 531 954 scaleXYZ;
#X floatatom 528 922 5 0 1.5 0 - - - 0;
#X floatatom 570 922 5 0 1.5 0 - - - 0;
#X floatatom 611 923 5 0 1.5 0 - - - 0;
#X msg 686 905 0;
#X obj 528 879 hsl 162 19 0 2.5 0 0 empty empty empty -2 -10 0 12 #c6ffc7 #000000 #000000 0 1;
#X msg 349 964 draw line;
#X obj 347 939 bng 19 250 50 0 empty empty empty 0 -10 0 12 #fcfcfc #000000 #000000;
#X obj 244 938 bng 19 250 50 0 empty empty empty 0 -10 0 12 #fcfcfc #000000 #000000;
#X msg 252 963 draw fill;
#X obj 147 939 bng 19 250 50 0 empty empty empty 0 -10 0 12 #fcfcfc #000000 #000000;
#X msg 147 964 draw point;
#X msg 685 542 0.1;
#X obj 531 1001 circle 0.5;
#X obj 595 352 pack f f f f;
#X floatatom 595 330 2 0 0 0 - - - 0;
#X floatatom 622 331 2 0 0 0 - - - 0;
#X floatatom 649 331 2 0 0 0 - - - 0;
#X obj 595 308 metro 100;
#X obj 594 286 tgl 19 0 empty empty empty 0 -10 0 12 #fcfcfc #000000 #000000 0 1;
#X floatatom 717 262 5 0 0 0 - - - 0;
#X floatatom 717 312 5 0 0 0 - - - 0;
#X obj 594 263 loadbang;
#X obj 717 287 / 10;
#X obj 717 237 ctlin 17 2;
#X obj 502 61 notein;
#X obj 501 140 spigot;
#X msg 547 117 1;
#X obj 501 166 bng 19 250 50 0 empty empty empty 0 -10 0 12 #fcfcfc #000000 #000000;
#X msg 581 117 0;
#X obj 502 90 sel 50;
#X obj 554 90 sel 2;
#X obj 762 882 loadbang;
#X msg 762 906 0.05;
#X obj 721 109 r d0;
#X obj 761 109 r d1;
#X obj 802 109 r d2;
#X obj 843 109 r d3;
#X obj 882 109 r d4;
#X obj 922 110 r d5;
#X obj 269 704 notein;
#X obj 269 783 spigot;
#X msg 322 756 1;
#X msg 357 757 0;
#X obj 269 808 bng 19 250 50 0 empty empty empty 0 -10 0 12 #fcfcfc #000000 #000000;
#X obj 269 733 sel 49;
#X obj 269 830 tgl 19 0 empty empty empty 0 -10 0 12 #ffe3c6 #000000 #000000 0 1;
#X obj 394 854 sel 0;
#X obj 269 855 sel 1;
#X obj 141 704 notein;
#X obj 141 783 spigot;
#X msg 194 756 1;
#X msg 229 757 0;
#X obj 141 808 bng 19 250 50 0 empty empty empty 0 -10 0 12 #fcfcfc #000000 #000000;
#X obj 141 830 tgl 19 0 empty empty empty 0 -10 0 12 #ffe3c6 #000000 #000000 0 1;
#X obj 141 855 sel 1;
#X obj 141 733 sel 48;
#X obj 322 733 sel 2;
#X obj 194 733 sel 2;
#X obj 523 801 / 127;
#X obj 523 773 ctlin 16 2;
#X obj 524 856 + 0.01;
#X obj 523 830 * 2.5;
#X obj 376 941 loadbang;
#X obj 827 439 hsl 162 19 2 128 0 0 empty empty empty -2 -10 0 12 #c6ffc7 #000000 #000000 0 1;
#X floatatom 823 461 5 1 100 0 - - - 0;
#X floatatom 824 346 5 1 127 0 - - - 0;
#X floatatom 824 417 5 0 0 0 - - - 0;
#X obj 824 367 + 1;
#X obj 824 392 * 1;
#X obj 824 321 ctlin 18 2;
#X obj 839 638 part_killold 100;
#X obj 617 482 loadbang;
#X obj 500 569 part_targetcolor 0 1 1 0.05;
#X msg 592 534 1 1 0;
#X obj 57 194 notein;
#X floatatom 56 246 5 0 0 0 - - - 0;
#X floatatom 102 245 5 0 0 0 - - - 0;
#X floatatom 156 246 5 0 0 0 - - - 0;
#X obj 210 75 ctlin;
#X floatatom 211 145 5 0 0 0 - - - 0;
#X floatatom 257 144 5 0 0 0 - - - 0;
#X floatatom 311 145 5 0 0 0 - - - 0;
#X connect 0 0 86 0;
#X connect 1 0 0 1;
#X connect 2 0 0 2;
#X connect 4 0 3 0;
#X connect 5 0 6 0;
#X connect 6 0 7 0;
#X connect 7 0 9 0;
#X connect 8 0 13 0;
#X connect 9 0 10 0;
#X connect 10 0 0 0;
#X connect 11 0 5 0;
#X connect 12 0 6 1;
#X connect 13 0 26 0;
#X connect 14 0 13 1;
#X connect 15 0 13 2;
#X connect 16 0 13 3;
#X connect 17 0 16 0;
#X connect 17 0 15 0;
#X connect 17 0 14 0;
#X connect 18 0 16 0;
#X connect 18 0 15 0;
#X connect 18 0 14 0;
#X connect 19 0 26 0;
#X connect 20 0 19 0;
#X connect 21 0 22 0;
#X connect 22 0 26 0;
#X connect 23 0 24 0;
#X connect 24 0 26 0;
#X connect 25 0 86 2;
#X connect 27 0 10 3;
#X connect 28 0 27 0;
#X connect 29 0 27 1;
#X connect 30 0 27 2;
#X connect 31 0 27 0;
#X connect 32 0 31 0;
#X connect 33 0 36 0;
#X connect 34 0 27 3;
#X connect 35 0 32 0;
#X connect 36 0 34 0;
#X connect 37 0 33 0;
#X connect 38 0 43 0;
#X connect 38 2 44 0;
#X connect 39 0 41 0;
#X connect 40 0 39 1;
#X connect 41 0 11 0;
#X connect 42 0 39 1;
#X connect 43 0 39 0;
#X connect 44 0 40 0;
#X connect 44 1 42 0;
#X connect 45 0 46 0;
#X connect 46 0 16 0;
#X connect 46 0 15 0;
#X connect 46 0 14 0;
#X connect 47 0 4 0;
#X connect 48 0 4 0;
#X connect 49 0 4 0;
#X connect 50 0 4 0;
#X connect 51 0 4 0;
#X connect 53 0 58 0;
#X connect 53 2 70 0;
#X connect 54 0 57 0;
#X connect 55 0 54 1;
#X connect 56 0 54 1;
#X connect 57 0 59 0;
#X connect 58 0 54 0;
#X connect 59 0 60 0;
#X connect 59 0 61 0;
#X connect 60 0 20 0;
#X connect 61 0 21 0;
#X connect 62 0 69 0;
#X connect 62 2 71 0;
#X connect 63 0 66 0;
#X connect 64 0 63 1;
#X connect 65 0 63 1;
#X connect 66 0 67 0;
#X connect 67 0 68 0;
#X connect 67 0 60 0;
#X connect 68 0 23 0;
#X connect 69 0 63 0;
#X connect 70 0 55 0;
#X connect 70 1 56 0;
#X connect 71 0 64 0;
#X connect 71 1 65 0;
#X connect 72 0 75 0;
#X connect 73 0 72 0;
#X connect 74 0 18 0;
#X connect 75 0 74 0;
#X connect 76 0 19 0;
#X connect 77 0 78 0;
#X connect 78 0 84 1;
#X connect 79 0 81 0;
#X connect 80 0 77 0;
#X connect 81 0 82 0;
#X connect 82 0 80 0;
#X connect 83 0 79 0;
#X connect 84 0 8 0;
#X connect 85 0 87 0;
#X connect 85 0 25 0;
#X connect 86 0 84 0;
#X connect 87 0 86 1;
#X connect 88 0 89 0;
#X connect 88 1 90 0;
#X connect 88 2 91 0;
#X connect 92 0 93 0;
#X connect 92 1 94 0;
#X connect 92 2 95 0;
